<?xml version="1.0" encoding="UTF-8"?>
<svg id="_レイヤー_2" data-name="レイヤー 2" xmlns="http://www.w3.org/2000/svg" xmlns:xlink="http://www.w3.org/1999/xlink" viewBox="0 0 1200.0196773 357.6334101">
  <defs>
    <style>
      .cls-1, .cls-2, .cls-3, .cls-4 {
        fill: #fff;
      }

      .cls-5 {
        font-size: 88.7507172px;
      }

      .cls-5, .cls-3, .cls-6, .cls-4, .cls-7 {
        font-family: HGPSoeiKakugothicUB, HGPSoeiKakugothicUB;
      }

      .cls-5, .cls-8, .cls-9 {
        fill: #ff0100;
      }

      .cls-10, .cls-11 {
        fill: #000248;
      }

      .cls-10, .cls-12 {
        font-family: Meiryo-Bold, Meiryo;
        font-size: 21.9867992px;
        font-weight: 700;
      }

      .cls-2 {
        font-size: 78.5220032px;
      }

      .cls-2, .cls-8 {
        font-family: FuturaPT-Demi, 'Futura PT';
        font-weight: 300;
      }

      .cls-13 {
        stroke: #ff0100;
        stroke-width: 1.104055px;
      }

      .cls-13, .cls-14 {
        stroke-miterlimit: 10;
      }

      .cls-13, .cls-14, .cls-15 {
        fill: none;
      }

      .cls-3 {
        font-size: 16.4901009px;
      }

      .cls-8 {
        font-size: 34.5199089px;
      }

      .cls-16 {
        letter-spacing: .0400008em;
      }

      .cls-14 {
        stroke: #000248;
        stroke-width: 2.2081101px;
      }

      .cls-6 {
        font-size: 34.2943497px;
      }

      .cls-4 {
        font-size: 19.7881203px;
      }

      .cls-17 {
        clip-path: url(#clippath);
      }

      .cls-18, .cls-7 {
        fill: #636262;
      }

      .cls-7 {
        font-size: 7.5866599px;
        letter-spacing: -.020005em;
      }

      .cls-19 {
        fill: #666;
      }
    </style>
    <clipPath id="clippath">
      <rect class="cls-15" x="1015.3759196" y=".1732623" width="43.7564475" height="49.1562168"/>
    </clipPath>
  </defs>
  <g id="_レイヤー_2-2" data-name="レイヤー 2">
    <g>
      <g>
        <path class="cls-9" d="m1200.0196773,174.7950609c-9.7573548,6.3447041-10.4058065,12.5392451-2.0814651,20.4717148-10.7938987,4.0330955-12.6150043,9.8041197-5.9697386,19.0674225-11.3358813,1.7320385-14.2053915,6.9563556-9.4460273,17.2546567-11.4225395-.5195645-15.2162047,4.034855-12.510331,15.0334173-11.0931098-2.6828113-15.6866807,1.0785202-15.1626498,12.4037044-10.3868289-4.7187997-15.656056-1.8737467-17.4029838,9.365518-9.3429334-6.5886275-15.1635674-4.7830433-19.2313328,5.9188581-8.00066-8.2533923-14.2484514-7.6104675-20.6476968,2.0637246-6.3992454-9.6741921-12.6470368-10.3171169-20.6476968-2.0637246-4.0677654-10.7019014-9.8883994-12.5074855-19.2313328-5.9188581-1.7469277-11.2392647-7.0161549-14.0843177-17.4029838-9.365518.5240308-11.3251843-4.0695401-15.0865157-15.1626498-12.4037044,2.7058737-10.9985623-1.0877915-15.5529818-12.510331-15.0334173,4.7593642-10.2983011,1.8898541-15.5226182-9.4460273-17.2546567,6.6452656-9.2633028,4.82416-15.0343271-5.9697386-19.0674225,8.3243414-7.9324697,7.6758897-14.1270107-2.0814651-20.4717148,9.7573548-6.3447041,10.4058065-12.5392451,2.0814651-20.4717148,10.7938987-4.0330955,12.6150043-9.8041197,5.9697386-19.0674225,11.3358813-1.7320385,14.2053915-6.9563556,9.4460273-17.2546567,11.4225395.5195645,15.2162047-4.034855,12.510331-15.0334173,11.0931098,2.6828113,15.6866807-1.0785202,15.1626498-12.4037044,10.3868289,4.7187997,15.656056,1.8737467,17.4029838-9.365518,9.3429334,6.5886275,15.1635674,4.7830433,19.2313328-5.9188581,8.00066,8.2533923,14.2484514,7.6104675,20.6476968-2.0637246,6.3992454,9.6741921,12.6470368,10.3171169,20.6476968,2.0637246,4.0677654,10.7019014,9.8883994,12.5074855,19.2313328,5.9188581,1.7469277,11.2392647,7.0161549,14.0843177,17.4029838,9.365518-.5240308,11.3251843,4.0695401,15.0865157,15.1626498,12.4037044-2.7058737,10.9985623,1.0877915,15.5529818,12.510331,15.0334173-4.7593642,10.2983011-1.8898541,15.5226182,9.4460273,17.2546567-6.6452656,9.2633028-4.82416,15.0343271,5.9697386,19.0674225-8.3243414,7.9324697-7.6758897,14.1270107,2.0814651,20.4717148Z"/>
        <g>
          <g>
            <g>
              <g>
                <path class="cls-18" d="m1106.6189439,9.4129513v5.3100871c0,1.2500239-.8808808,2.21143-1.6196998,2.7973012l1.1167416,1.3837192c1.4983969-1.1881496,2.2904598-2.6341903,2.2904598-4.1810204v-5.3100871s-1.7875015,0-1.7875015,0Z"/>
                <path class="cls-18" d="m1113.69703,14.2947965c0,1.0505553-.2563724,1.8337157-.7621683,2.3282708-.3393125.3316575-.7735189.520289-1.2114568.6280248v-8.3172289s-1.7875015,0-1.7875015,0v10.2255833s.1584173.001307.1584173.001307c.823502.0112317,2.7523949.0376385,4.0956368-1.2759876.8590493-.8398328,1.294574-2.0478761,1.294574-3.5899695h-1.7875015Z"/>
              </g>
              <polygon class="cls-18" points="1117.0334634 12.7704862 1116.5892962 14.4795357 1124.5212226 14.4795357 1124.9656132 12.7704862 1117.0334634 12.7704862"/>
              <g>
                <path class="cls-18" d="m1131.8969733,9.4158755c0-.0032565.0004469-.0062694.0004469-.0095259h-6.1109315s-.444708,1.7721558-.444708,1.7721558h6.8951531c-.4529752,3.806319-2.5328673,5.8210939-6.3273756,6.1345635l-.4569301,1.8029973c5.0819116-.2044531,8.0232454-2.9130302,8.5718072-7.8525363-.0763689.0091936-.1531665.0153523-.2321518.0153523-1.0578434,0-1.8953102-.8291106-1.8953102-1.8630066Z"/>
                <path class="cls-18" d="m1133.790096,10.7578357c-.7632632,0-1.3672621-.5984058-1.3672621-1.3443528,0-.7571787.6039989-1.3555845,1.3672621-1.3555845.7523573,0,1.3563317.5984058,1.3563317,1.3555845,0,.745947-.6039744,1.3443528-1.3563317,1.3443528Zm0-1.8640035c-.2958783,0-.5241199.2258754-.5241199.5196507,0,.2825436.2282416.508419.5241199.508419.2849703,0,.512765-.2258754.512765-.508419,0-.2937753-.2277947-.5196507-.512765-.5196507Z"/>
              </g>
              <g>
                <path class="cls-18" d="m1104.6285394,10.1196204h-2.8914836s.2003106-.7066691.2003106-.7066691h-3.6629482c-.2585621,1.1550526-.9843101,2.6432469-1.8806751,3.0575364l-.4794973,1.8834762c1.7464784,0,2.993931-1.5465241,3.6684-3.1688568h3.1930363c-.2118636,5.8002074-2.8683578,6.0425205-5.5021532,6.1400838l-.4665156,1.7908753.3288333-.0121219c2.6839783-.0962743,7.1717243-.2580863,7.4289681-7.9188372h.0076416l.0560829-1.0654866Z"/>
                <path class="cls-18" d="m1105.3459755,8.1124178l-.4656218,1.6428911h-1.0338462s.4654207-1.6428911.4654207-1.6428911h1.0340473Z"/>
                <path class="cls-18" d="m1103.8170584,8.1124178l-.4656442,1.6428911h-1.0338462s.4656442-1.6428911.4656442-1.6428911h1.0338462Z"/>
              </g>
            </g>
            <g>
              <g>
                <polygon class="cls-18" points="1071.8373888 8.6273042 1069.8893292 8.6273042 1067.3363842 12.2970337 1067.3363842 15.1071481 1068.2615873 13.7674542 1068.2615873 19.1712427 1069.9272611 19.1712427 1069.9272611 11.3825524 1071.8373888 8.6273042"/>
                <polygon class="cls-18" points="1076.0992543 15.2597204 1080.0330695 15.2597204 1080.4704388 13.6823258 1076.0992543 13.6823258 1076.0992543 11.8618685 1080.0361936 11.8618685 1080.45994 10.3166429 1076.0992543 10.3166429 1076.0992543 8.6276615 1074.4167937 8.6276615 1074.4167937 10.3166429 1071.2481948 10.3166429 1070.8108255 11.8618685 1074.4042974 11.8618685 1074.4042974 13.6823258 1070.835818 13.6823258 1070.3984487 15.2597204 1074.4167937 15.2597204 1074.4167937 17.473592 1070.797818 17.473592 1070.3303588 19.1683419 1080.0393176 19.1683419 1080.5016795 17.473592 1076.0992543 17.473592 1076.0992543 15.2597204"/>
              </g>
              <polygon class="cls-18" points="1086.060333 11.5709889 1084.7476266 11.5709889 1084.7476266 8.6360782 1083.0557742 8.6360782 1083.0557742 11.5709889 1082.2122763 11.5709889 1081.7624107 13.2587362 1083.0557742 13.2587362 1083.0557742 19.164921 1084.7476266 19.164921 1084.7476266 13.2587362 1085.6050124 13.2587362 1086.060333 11.5709889"/>
              <path class="cls-18" d="m1091.0096473,13.4414774l.0025091.6064507h-.386804s-.3107004,1.2844151-.3107004,1.2844151h.6928529v2.1453543h-.5019395s-.4566241,1.6854966-.4566241,1.6854966h.7325001c1.0422605-.05373,1.5639771-.5878228,1.6187479-1.3114072v-2.5194438h.9820982l-.0023353,2.1473169-.5342841.0008634-.4603548,1.684778h.8316639c1.0385687-.05373,1.4428425-.5793939,1.4978129-1.3029782v-3.8159388s-2.2861444.0015436-2.2861444.0015436v-.6068465s-1.4189983.0003958-1.4189983.0003958Z"/>
              <path class="cls-18" d="m1086.4595132,13.4414774l.0025091.6064507h-.4492853s-.3107004,1.2844151-.3107004,1.2844151h.7553342v2.1453543h-.6019096s-.4566241,1.6854966-.4566241,1.6854966h.8324702c1.0422605-.05373,1.5639771-.5878228,1.6187479-1.3114072v-2.5194438h.9820982l-.0023353,2.1473169-.5342841.0008634-.4603548,1.684778h.8316639c1.0385687-.05373,1.4428425-.5793939,1.4978129-1.3029782v-3.8159388s-2.2861444.0015436-2.2861444.0015436v-.6068465s-1.4189983.0003958-1.4189983.0003958Z"/>
              <path class="cls-18" d="m1091.0136951,11.569557h1.8083651s0-.6253679,0-.6253679h-2.1563221s0,.4409652,0,.4409652c0,1.2174525-1.1308025,1.7756999-2.0327522,1.7756999h-2.1919015l.0011777-1.598421h2.5554863s0-.6182441,0-.6182441h-2.9440984s.3841938-1.4790227.3841938-1.4790227h2.5599046s0-.8360446,0-.8360446h1.6653545v.8360446s3.5830771.0057985,3.5830771.0057985v2.4618994c-.0530133.775751-.4210403,1.2249064-1.4241198,1.2291613h-1.8114789l.0031138-1.5924686Z"/>
            </g>
          </g>
          <g class="cls-17">
            <g>
              <path class="cls-9" d="m1072.1857338,31.3270103l.0152728,28.9671134-39.3149509.1227045v-27.599308c0-.8210877-.6788918-1.49051-1.5068922-1.49051h-5.4577221l23.1676933-25.5762242,23.096599,25.5762242Zm-15.7679662-.2118168c0-2.0033675-1.6387623-3.6297486-3.6646842-3.6297486-2.0152518,0-3.6557917,1.6263812-3.6557917,3.6297486,0-2.0033675-1.6403621-3.6297486-3.6627287-3.6297486-2.0207668,0-3.6559739,1.6263812-3.6559739,3.6297486,0,4.9054039,7.3187026,9.5282885,7.3187026,9.5282885,0,0,7.3204758-4.6228845,7.3204758-9.5282885Z"/>
              <path class="cls-9" d="m1029.0075962,18.0604356s-4.5846924-2.8964352-4.5846924-5.9699458c0-1.2534032,1.026578-2.2712316,2.2939366-2.2712316,1.2641733,0,2.2907558,1.0178284,2.2907558,2.2712316,0-1.2534032,1.0265735-2.2712316,2.2907558-2.2712316,1.2657682,0,2.2923462,1.0178284,2.2923462,2.2712316,0,3.0735106-4.583102,5.9699458-4.583102,5.9699458Z"/>
              <path class="cls-9" d="m1020.653462,7.744251s-2.2270137-1.4054694-2.2270137-2.8953041c0-.6093537.5016154-1.101339,1.1162073-1.101339.6113954,0,1.1108064.4919853,1.1108064,1.101339,0-.6093537.4962146-1.101339,1.1108064-1.101339.6134896,0,1.1130109.4919853,1.1130109,1.101339,0,1.4898347-2.2238173,2.8953041-2.2238173,2.8953041Z"/>
            </g>
          </g>
          <text class="cls-7" transform="translate(1134.9931641 19.5149763)"><tspan x="0" y="0">の</tspan></text>
          <g>
            <path class="cls-18" d="m1070.02896,38.2452201c-.6363893.7101033-.873687.9464479-1.2706213,1.3399991l-1.0333236-5.568536c2.2521709-2.6789289,3.4969052-6.2786393,3.9197265-9.4302574l3.8959967.3154826c-.1337496,1.1025851-.4508656,3.5195029-1.6157816,6.6454547v18.045607h-3.8959967v-11.3477501Zm13.3533886-9.1671769c-1.3784839-1.0245165-2.3578762-1.6544124-4.0793631-2.6265267l3.9197265-2.2597112c1.6697129.9197121,3.7104731,2.3645157,5.0069814,3.3890322l-2.5433999,1.4972057h7.1275599v3.756917h-6.5429447v4.018928h5.6153264v3.7301812h-5.6153264v4.5696858h7.0196973v3.7045148h-18.2266204v-3.7045148h7.0736286v-4.5696858h-5.5915966v-3.7301812h5.5915966v-4.018928h-6.4652836v-3.756917h7.7100179Z"/>
            <path class="cls-18" d="m1105.8371825,27.6856418v-2.1271016h4.2389998v2.1271016h8.0012469v3.677779h-8.0012469v1.9174928h7.3907446v3.598641h-7.3907446v2.6799983c3.0460395,1.2341253,5.9863737,3.3355605,7.4705629,4.6231575l-2.6749922,3.7825834c-1.0592106-1.0779881-2.9942655-2.8372049-4.7955707-3.9408594-.2394549,3.6253768-2.8346289,4.5974911-6.0683493,4.5974911-4.5021845,0-6.965766-2.128171-6.965766-5.0701803,0-3.1783539,2.9122899-5.1225825,7.205221-5.1225825.873687,0,1.164916.0524022,1.5898946.158276v-1.707884h-8.9029781v-3.598641h8.9029781v-1.9174928h-9.4595491v-3.677779h9.4595491Zm0,14.4212997c-.5026397-.1839424-1.1390289-.3935512-2.0407602-.3935512-.9793923,0-2.7289235.3144132-2.7289235,1.7068146,0,1.4715394,1.9609419,1.5763438,2.5714441,1.5763438,2.2241266,0,2.1982396-1.0769187,2.1982396-1.7335504v-1.1560567Z"/>
            <path class="cls-18" d="m1127.2047615,27.0033438c-.4487084,2.7056647-.7679816,5.3054555-.7679816,8.037856,0,2.390182.1855237,8.1693962,2.3061022,8.1693962,1.3504396,0,2.5153556-2.7580669,3.2574502-4.9119043l3.4451311,1.9955614c-.7960259,2.3121135-2.8626731,7.7491092-6.9679233,7.7491092-5.5915966,0-6.2258287-9.0099703-6.2258287-13.3967832,0-2.7056647.291229-5.9364208.4767526-8.037856l4.4762975.3946207Zm13.8840725,18.4402277c.025887-.5261609.051774-1.0779881.051774-1.8918264,0-8.9575681-2.9662212-12.7658179-4.6618211-14.184955l3.3911998-2.231906c2.3837632,2.390182,5.9863737,6.0412252,5.8008501,18.045607l-4.5820028.2630804Z"/>
            <path class="cls-18" d="m1147.1960138,36.4068653c.6622763-1.5763438.8478-5.0691109.8478-6.5673861l2.2262838.1058738c0,.9453785.025887,4.8851685-.9535053,8.116994l-2.1205785-1.6554818Zm8.0810652-3.9141236c-.1596366-.4726892-.317116-.8662405-.8478-2.049033v19.1759974h-3.7363601v-24.9541421h3.7363601v3.8082498l1.1390289-.6042295c.4767526.7357697.608345,1.0512523,1.3784839,2.5741245v-.8138383h5.4298028v-.9453785h-6.1201233v-2.7324005h6.1201233v-1.2865275h3.8679525v1.2865275h6.1740546v2.7324005h-6.1740546v.9453785h5.671415v2.2062396h-5.671415v1.0245165h6.6766943v2.8104691h-17.1932968v-2.8104691h6.64865v-1.0245165h-5.4298028v-.262011l-1.6697129.9186427Zm16.5310205,4.0456638v10.3489c0,1.1827925-.0776611,2.7324005-2.5692869,2.7324005h-3.7881341l-.6105023-3.0211473h2.4118075c.6363893,0,.6622763-.1572066.6622763-.6566317v-.6566317h-7.2332652v4.3344106h-3.8140212v-13.0813005h14.9411259Zm-11.1271047,2.6532625v1.0245165h7.2332652v-1.0245165h-7.2332652Zm0,3.0200779v.9988501h7.2332652v-.9988501h-7.2332652Z"/>
            <path class="cls-18" d="m1178.5538258,24.6912303h3.9197265v1.4448035h3.6306548v3.4938366h-3.6306548v1.4704699h4.2929311v3.3890322h-1.0333236c-.1855237.8929763-.3192733,1.4972057-.5306839,2.3645157h1.4583022v3.5195029h-4.1872257v1.6544124h3.7881341v3.5997104h-3.7881341v3.8082498h-3.9197265v-3.8082498h-3.5767235v-3.5997104h3.5767235v-1.6544124h-4.1074074v-3.5195029h1.7214869c-.0798183-.7101033-.317116-1.787022-.4767526-2.3645157h-1.3504396v-3.3890322h4.2131127v-1.4704699h-3.5767235v-3.4938366h3.5767235v-1.4448035Zm.582458,9.7981422c.0798183.3678848.3969343,2.0222972.4767526,2.3645157h2.0925342c.2394549-1.2084589.291229-1.9442286.3451603-2.3645157h-2.9144472Zm11.7354497,12.5562091v2.390182h-3.6824288v-24.0879016h11.6577887c.025887,1.8394242-.2114107,6.1995012-.556571,7.1972819-.3710473.9988501-1.2188473,1.5763438-2.2780579,1.5763438h-3.5508364l-.634232-3.1783539h2.1723526c.8478,0,.873687-.1839424.9535053-1.969895h-4.0815204v6.0412252h8.1349965c-.1337496,1.7859526-.4767526,6.0946968-1.8811236,9.0891083.9276183.7881719,1.8530793,1.3924013,2.7008792,1.9174928l-1.9328976,3.4671007c-.7420946-.420287-1.5359633-.8662405-2.8605159-2.1795038-.9556625,1.1025851-1.6955999,1.7592168-2.3600335,2.2843082l-1.8013052-2.5473886Zm0-8.7212235v1.0245165l2.6512624-.4994251c.2372977.6042295.4767526,1.2351947,1.1390289,2.3912515.4228214-1.0779881.634232-2.0233666.8197557-2.9163429h-4.6100471Zm0,8.037856c.9815496-.8138383,1.5381205-1.4180677,1.9609419-1.9431592-.3969343-.6566317-1.4302579-2.3912515-1.9609419-4.9129737v6.8561329Z"/>
          </g>
        </g>
        <text class="cls-5" transform="translate(.0004883 153.5384138)"><tspan x="0" y="0">会員限定物件</tspan><tspan x="0" y="103.7104492">公開中</tspan></text>
        <text class="cls-8" transform="translate(287.8461914 242.2893904)"><tspan x="0" y="0">MEMBER</tspan><tspan class="cls-16" x="133.7973414" y="0">’</tspan><tspan x="145.6716627" y="0" xml:space="preserve">S  ONLY</tspan></text>
        <text class="cls-6" transform="translate(3.4575195 44.4456404)"><tspan class="cls-9" x="0" y="0">無料</tspan><tspan class="cls-11" x="68.5887261" y="0">で</tspan><tspan class="cls-9" x="98.8641849" y="0">未公開</tspan><tspan class="cls-11" x="201.7472739" y="0">物件が見つかる！</tspan></text>
        <text class="cls-12" transform="translate(315.0262451 311.5852888)"><tspan class="cls-19" x="0" y="0">良い物件が見当たらない方はこちら！</tspan><tspan class="cls-9" x="373.7758851" y="0">新規物件続々仕入中</tspan><tspan class="cls-19" x="571.6572361" y="0">！</tspan></text>
        <text class="cls-10" transform="translate(715.3007812 189.5579451)"><tspan x="0" y="0">もっと、探そう！</tspan></text>
        <text class="cls-3" transform="translate(1034.6323242 152.1809919)"><tspan x="0" y="0">常時約</tspan></text>
        <text class="cls-4" transform="translate(1064.5698242 241.2278669)"><tspan x="0" y="0">物件以上</tspan></text>
        <g>
          <path class="cls-1" d="m1130.0776143,139.0260433h-14.7816299c-2.0971788,0-3.8034416-1.6917202-3.8034416-3.7710153v-9.7910303c0-2.0782541,1.7062628-3.7699743,3.8034416-3.7699743h14.7816299c2.0961101,0,3.8023729,1.6917202,3.8023729,3.7699743v9.7910303c0,2.0792951-1.7062628,3.7710153-3.8023729,3.7710153Zm-14.7816299-15.2642411c-.963542,0-1.7178874.7479161-1.7178874,1.7021954v9.7910303c0,.9553204.7543454,1.7032365,1.7178874,1.7032365h14.7816299c.9624733,0,1.7168281-.7479161,1.7168281-1.7032365v-9.7910303c0-.9542794-.7543548-1.7021954-1.7168281-1.7021954h-14.7816299Z"/>
          <path class="cls-1" d="m1122.7169109,132.8227161c-.5758041,0-1.0427771-.462993-1.0427771-1.0338894v-2.8575866c0-.5708964.466973-1.0338894,1.0427771-1.0338894.5757947,0,1.0427677.462993,1.0427677,1.0338894v2.8575866c0,.5708964-.466973,1.0338894-1.0427677,1.0338894Z"/>
          <path class="cls-1" d="m1130.0776143,118.9650851c-.5758041,0-1.0427771-.4630023-1.0427771-1.0338894v-.6157428c0-2.4134528-1.9809606-4.3775201-4.4162102-4.3775201h-3.1283313c-2.4352496,0-4.4162102,1.9640674-4.4162102,4.3775201v5.4124599c0,.5708871-.466973,1.0338894-1.0427771,1.0338894-.5757947,0-1.0427677-.4630023-1.0427677-1.0338894v-5.4124599c0-3.554186,2.917016-6.445299,6.501755-6.445299h3.1283313c3.584739,0,6.501755,2.891113,6.501755,6.445299v.6157428c0,.5708871-.466973,1.0338894-1.0427677,1.0338894Z"/>
          <path class="cls-1" d="m1123.7596786,151.7354204h-23.1840511c-2.8261656,0-5.2138761-2.3673598-5.2138761-5.1694378v-43.2368182c0-2.8502623,2.339112-5.1694378,5.2138761-5.1694378h23.1840511c2.8409589,0,5.152603,2.3191755,5.152603,5.1694378v5.5339709c0,.5708871-.4669824,1.0338894-1.0427771,1.0338894s-1.0427771-.4630023-1.0427771-1.0338894v-5.5339709c0-1.7388542-1.3470521-3.101659-3.0670488-3.101659h-23.1840511c-1.7252747,0-3.1283219,1.3910796-3.1283219,3.101659v43.2368182c0,1.6812449,1.4326244,3.1016683,3.1283219,3.1016683h23.1840511c1.6629516,0,3.0670488-1.4204233,3.0670488-3.1016683v-5.1694378c0-.5708871.4669824-1.0338801,1.0427771-1.0338801s1.0427771.462993,1.0427771,1.0338801v5.1694378c0,2.8502623-2.3116441,5.1694378-5.152603,5.1694378Z"/>
          <path class="cls-1" d="m1127.8695045,107.4647128h-31.464976c-.5757947,0-1.0427771-.462993-1.0427771-1.0338894,0-.5708871.4669824-1.0338801,1.0427771-1.0338801h31.464976c.5757947,0,1.0427771.462993,1.0427771,1.0338801,0,.5708964-.4669824,1.0338894-1.0427771,1.0338894Z"/>
          <path class="cls-1" d="m1127.8695045,144.498213h-31.464976c-.5757947,0-1.0427771-.4630023-1.0427771-1.0338894s.4669824-1.0338894,1.0427771-1.0338894h31.464976c.5757947,0,1.0427771.4630023,1.0427771,1.0338894s-.4669824,1.0338894-1.0427771,1.0338894Z"/>
          <path class="cls-1" d="m1113.7006525,148.0869664h-3.0659895c-.5758041,0-1.0427771-.4630023-1.0427771-1.0338894s.466973-1.0338894,1.0427771-1.0338894h3.0659895c.5757947,0,1.0427771.4630023,1.0427771,1.0338894s-.4669824,1.0338894-1.0427771,1.0338894Z"/>
        </g>
        <text class="cls-2" transform="translate(1031.8051758 215.189781)"><tspan x="0" y="0">600</tspan></text>
        <line class="cls-14" x1="682.8798738" y1="164.7013161" x2="707.057783" y2="188.6731549"/>
        <line class="cls-14" x1="916.6191527" y1="164.7013161" x2="892.4412436" y2="188.6731549"/>
        <ellipse class="cls-9" cx="121.2775786" cy="4.94703" rx="4.9895564" ry="4.94703"/>
        <ellipse class="cls-9" cx="155.0956833" cy="4.94703" rx="4.9895564" ry="4.94703"/>
        <ellipse class="cls-9" cx="188.9137879" cy="4.94703" rx="4.9895564" ry="4.94703"/>
      </g>
      <line class="cls-13" x1="1.9536146" y1="357.0813826" x2="1197.8734989" y2="357.0813826"/>
    </g>
  </g>
</svg>