<?xml version="1.0" encoding="UTF-8"?>
<svg id="_レイヤー_2" data-name="レイヤー 2" xmlns="http://www.w3.org/2000/svg" viewBox="0 0 263.6782752 81.5939007">
  <defs>
    <style>
      .cls-1 {
        fill: #c81d1d;
      }

      .cls-2 {
        fill: #1e2b68;
      }

      .cls-3 {
        fill: #231815;
      }
    </style>
  </defs>
  <g id="_レイヤー_2-2" data-name="レイヤー 2">
    <g>
      <path class="cls-2" d="m10.8570061,18.0839492h1.7610308c.5693847,0,1.2995624.0951779,1.2995624.7760841v6.1245174s-1.9809493.7270868-5.5594928.7270868c-3.5766206,0-8.3581065-1.9694126-8.3581065-7.4241134,0-5.451336,4.9881852-7.5733696,8.6724818-7.5733696,1.6632091,0,3.7366925.098062,3.7366925,1.0313338v1.8208774c-1.3997876-1.1421343-1.9679705-1.353915-4.0948112-1.353915-2.1354932,0-5.9546251,1.3974181-5.9546251,5.9515344,0,4.5305623,5.1208574,7.2359208,9.384393,5.5236808v-3.4764292c0-.7291824-.0576836-2.1272875-.887125-2.1272875Z"/>
      <path class="cls-2" d="m37.6007836,25.34054h4.5125363c-1.2430806-.4669964-1.7610308-1.9674898-2.1789962-3.0608335-.4201285-1.0856525-3.6876615-9.031081-4.0436171-10.1217808-.3710975-1.0878156-.881597-1.0878156-1.3072535-1.0878156h-2.5837425c1.2406771.4174847.557127,1.2995623.3504276,1.9210686-.2035749.6186901-4.5615673,11.4235403-4.5615673,11.4235403-1.5086653-.4150812-5.3071272-5.9721704-5.3071272-5.9721704,5.0360145-1.4490589,4.2676215-7.3724386-.6684082-7.3724386h-5.6597179c1.1450185.2581339,1.0416688,1.4569904,1.0416688,2.3902622v9.8093283c0,1.3464302-.417004,1.7148502-1.0906998,2.0708395h4.1491299c-1.1397309-.5160274-.8359308-1.7122401-.8359308-2.2818652v-10.5832493h2.2388429c1.1995776,0,2.0756465,1.4545869,2.0756465,2.4416967,0,1.5990361-1.2505314,2.225864-2.4880839,2.6902166-1.2507717.4662754-.5725093,1.505781,0,2.33354.5691444.8330466,2.2280272,3.1737633,3.2228282,4.3166524.9827835,1.1423747,1.8665436,1.0830087,2.3313769,1.0830087h3.7364521c-1.4464151-.4614684-.6705713-1.5983151-.4667561-2.1708243.2122274-.5753934,1.1428554-3.014927,1.1428554-3.014927h5.6063607s.6780221,1.7610308,1.2995624,3.3261778c.6292314,1.5497648.1490158,1.7588676-.5157871,1.8595735Zm-5.817867-6.8467972l2.1268407-5.554205,2.2878739,5.554205h-4.4147146Z"/>
      <path class="cls-2" d="m83.0705653,25.34054h4.5257554c-1.2538962-.4669964-1.7687219-1.9674898-2.1811593-3.0608335-.4126778-1.0856525-3.6886229-9.031081-4.0489047-10.1217808-.3670116-1.0878156-.8772707-1.0878156-1.3029273-1.0878156h-2.5904722c1.2529348.4174847.5693847,1.2995623.3581187,1.9210686-.2066994.6186901-4.5692584,11.4235403-4.5692584,11.4235403-.2893792.6782624-.7150357.688357-.9827835.925821h3.7388556c-1.4543466-.4614684-.6760993-1.5983151-.4691596-2.1708243.205738-.5753934,1.1471817-3.014927,1.1471817-3.014927h5.6041975s.6835501,1.7610308,1.3038886,3.3261778c.6193771,1.5497648.1502176,1.7588676-.5333325,1.8595735Zm-5.8065706-6.8467972l2.1268407-5.554205,2.2823459,5.554205h-4.4091866Z"/>
      <path class="cls-2" d="m67.1013544,25.6061247c.5179502-.4691596.9871098-.8354838.9871098-2.4914825v-9.811698c0-.7758438-.0598467-1.6658529-.9871098-1.9747002h3.989058c-.4124374.3682133-.9056318.8296817-.9056318,1.8742347v9.9121635c0,.8849956-.1807418,2.1850386.9642767,2.4914825h-4.047703Z"/>
      <path class="cls-2" d="m45.5918785,14.388837s-.0511942,7.836517-.0511942,8.7258052c0,.8849956.1055128,2.1850386,1.2474068,2.4914825h-3.7931743c.5290063-.4691596.9337525-.8354838.9337525-2.4914825,0-1.6576473.1110408-9.0404209.1110408-9.811698,0-.7758438-.1110408-1.6658529-1.0447934-1.9747002h2.916865l8.7162252,10.9514626v-8.9222033c0-.5751531.1055128-1.6610459-1.0885367-2.0761272h3.8912363c-.4614684.3557152-1.1483834.5157871-1.1483834,2.0215681v12.8804967s-1.0830087.1987679-2.8440395-1.9259096c-1.7708851-2.1246775-7.8464053-9.8686943-7.8464053-9.8686943Z"/>
      <path class="cls-1" d="m70.4013343,36.6585335c-11.4162962-9.6238132-15.786306-20.9494642-.1696858-36.4036086.4898295-.4895891.9534611-.1985276.5691444.2396271-6.8439132,7.8266624-14.4792928,20.3430658-.156707,35.6871309.2220817.2319359.1394019.7424354-.2427516.4768507Z"/>
      <g>
        <path class="cls-3" d="m10.2078163,55.1785259c0-.3448486.482666-.3448486.7585449-.3448486,2.4140625,0,3.2070312,1.7932129,3.2070312,1.9311523,0,.4138184-.3447266.8621216-1.0344238,1.7242432-.1723633.241394-.2758789.3793335-.2758789.5517578,0,.2758789.4138184.2758789.5517578.2758789.3449707,0,2.8967285-.3793335,5.2416992-1.3793945.4138184-.1724243,1.2414551-.5517578,1.6208496-.5517578.3103027,0,.482666.1034546,1.8964844.9310913.2070312.1034546,1.1035156.5862427,1.276123.6896973.3791504.241394.6550293.5862427.6550293.8621216,0,.4827881-.2412109.6207275-1.3793945,1.3104248-.3791504.241394-.5170898.4483032-1.7241211,2.3104858-1.7587891,2.7587585-5.4831543,8.4142761-12.3457031,12.9662781-3.7932129,2.4829102-6.6555176,3.3105469-6.8623047,3.3105469-.1723633,0-.3105469-.1379395-.3105469-.3103638,0-.1379395.1035156-.2069092,1.1726074-.7931519,10.5178223-5.793457,17.0700684-17.5527649,17.0700684-18.6217957,0-.3103638-.2758789-.3793335-.3793945-.3793335-.0688477,0-4.8278809,1.0690308-5.6555176,1.0690308-.2067871,0-1.1379395-.1034546-1.3449707-.1034546-.6552734,0-.7241211.0689697-2.1723633,1.7242432-2.1037598,2.3449402-2.9658203,3.2415466-4.6899414,4.4830017-1.4140625,1.0345459-2.8969727,1.8276978-3.3105469,1.8276978-.1726074,0-.2414551-.1034546-.2414551-.2069092,0-.241394,2.3103027-2.1725464,2.7243652-2.5863647,2.7932129-2.7932434,6.0693359-7.5521545,5.793457-9.6212463-.034668-.1724243-.2414551-.9310913-.2414551-1.0690308Zm16.2424316,1.1724854c0,.5862427-.4140625,1.3449097-1.0002441,1.3449097-.482666,0-.7585449-.2069092-1.8276367-1.4828491-.6896973-.7931519-1.0344238-1.0345459-2.4484863-2.0346069-.1723633-.1034546-.5170898-.3448486-.5170898-.4827881s.2758789-.3103638.5861816-.3103638c4.4140625,0,5.2072754,2.5518799,5.2072754,2.9656982Zm.8276367-5.2072144c1.4138184.8276367,1.4138184,1.6207886,1.4138184,1.9656372,0,.5172729-.3449707,1.000061-.8620605,1.000061-.7243652,0-1.0690918-.3448486-1.8278809-1.1380005-.5517578-.5862427-2-1.3793945-3.1726074-1.6897583-.3447266-.1034546-.4482422-.2758789-.4482422-.3793335,0-.2758789.8964844-.4827881,1.2414551-.4827881,1.3449707,0,2.4829102,0,3.6555176.7241821Z"/>
        <path class="cls-3" d="m38.559867,78.0074749c10.7592773-5.793457,13.5871582-13.2421875,13.5871582-13.9663391,0-.4138184-.2414551-.6552124-.7241211-.6552124-1.1726074,0-9.8283691,1.5173035-11.3457031,1.9656067-.2412109.0689697-1.3447266.5862427-1.5861816.5862427-1.4829102,0-3.9313965-2.9656677-3.9313965-3.9312439,0-.1034546.1035156-.1724243.2070312-.1724243s.5170898.241394.6206055.2758789c.6552734.2758789,1.9658203.5862427,3.4140625.5862427,2.8276367,0,9.6901855-.8966064,10.9663086-1.0345459.0688477,0,2.3447266-.2069092,2.3793945-.2069092.1723633-.0689697.8276367-.3793335,1-.3793335.5861816,0,3.034668,2.0346069,3.034668,2.8277588,0,.5172424-.1379395.6551819-.9311523,1.3103943-.5861816.4827881-.9311523,1.000061-1.8620605,2.4484253-2.7243652,4.1381836-4.8625488,6.7245483-9.7248535,9.2074585-3.0690918,1.5518188-5.793457,2.2415161-6.1037598,2.2415161-.2758789,0-.3103027-.2069092-.3103027-.2758789s.0344238-.1724243.0688477-.2069092c.0690918-.0689697,1.034668-.5172729,1.2414551-.6207275Zm.8620605-22.5530701c.5517578.1379395,1.3449707.1379395,1.8278809.1379395,1.6208496,0,3.8967285-.0689697,5.5175781-.3793335.517334-.1034546,2.8967285-.6896973,3.3793945-.6896973.5861816,0,2.1037598.3103638,2.1037598,1.3104248,0,1.0690308-1.2070312,1.1724854-3.2072754,1.3449097-.5517578.0689697-7.9660645.7241821-8.2072754.7241821-1.8276367,0-2.8623047-2.3449707-2.8623047-2.5863647,0-.1724243.0688477-.241394.2070312-.241394.2067871,0,1.0344238.3448486,1.2412109.3793335Z"/>
        <path class="cls-3" d="m73.3259803,72.8692303c-.8964844.6552124-2.6552734,1.9656372-3.3793945,2.8277588-.6552734.7931519-.7243652.8621216-1.2414551.8621216-1.8623047,0-4.4140625-2.2070312-4.4140625-3.5864258,0-.241394.0344238-1.8276978.3447266-1.8276978.1379395,0,.8967285.5862427,1.034668.6552124.4482422.2758789,1.5861816.7931519,2.3449707.7931519,1.6896973,0,10.828125-6.1038208,16.5527344-11.7593079.5517578-.5517578,1.517334-1.517334,1.5861816-1.517334.0690918,0,.1723633.1034546.1723633.1724243,0,.3103638-4.034668,6.7590027-13.0007324,13.3800964Zm-2.8276367-11.3454895c-.9311523,0-1.276123-.5517578-2.4140625-2.276001-1.1723633-1.758728-2.1726074-2.276001-3.1379395-2.8277588-.1381836-.0689697-.3105469-.1724243-.3105469-.3103638s.2758789-.3103638.7587891-.3103638c3.6899414,0,6.5864258,1.9656372,6.5864258,4.0002441,0,1.0345459-.5861816,1.7242432-1.482666,1.7242432Z"/>
        <path class="cls-3" d="m99.0913612,65.1791058c0,.6896973-.5170898,1.7242432-1.3447266,1.7242432-.517334,0-.6896973-.2069092-1.2070312-1.0690308-.7241211-1.2414551-1.8967285-2.138031-3.1381836-2.8622131-.1035156-.0689697-.3103027-.2069092-.3103027-.3448486,0-.4827881,1.9655762-.5172729,2.4138184-.5172729,1.4829102,0,3.5864258,1.3793945,3.5864258,3.0691223Zm-4.2414551,10.6903076c-.1035156-.1724243-.7243652-.8966064-.8276367-1.0690308-.1035156-.1724243-.2070312-.4483032-.2070312-.6552124,0-.1379395.1035156-.241394.3103027-.241394.3105469,0,1.6208496.4483032,1.8967285.4483032,1.4829102,0,10.7592773-5.1727295,19.0012207-14.5180969.1723633-.2069092,1.3793945-1.5518188,1.4829102-1.5518188.0688477,0,.1379395.0344849.1379395.1379395,0,.3793335-3.034668,7.7590637-17.3115234,17.7596741-.4138184.2758789-2.0690918,1.8276978-2.517334,1.8276978-.7587891,0-1.1035156-.5517578-1.9655762-2.1380615Zm8.3796387-17.5527649c0,.7931519-.5517578,1.5518188-1.1035156,1.5518188-.3791504,0-.5517578-.1379395-1.7929688-1.6207886-.9311523-1.1035156-2.1381836-1.5863037-2.9658203-1.8276978-.1379395-.0344849-.517334-.1379395-.517334-.241394s.9655762-.6552124,2.6555176-.6552124c3.7241211,0,3.7241211,2.6898193,3.7241211,2.7932739Z"/>
        <path class="cls-3" d="m125.1675331,57.8683453c.6899414.1034546,1.4484863.1379395,2.1726074.1379395,3.0690918,0,13.3112793-1.6207886,14.2768555-2.0001221.2414551-.1034546,1.2067871-.7931519,1.4138184-.7931519.7932129,0,4.0693359,3.3105469,4.0693359,4.4830322,0,.241394,0,.6207275-1.2070312.8966064-1.2070312.241394-6.4831543,2.1725464-7.2075195,3.1381226-.4135742.5862122-.5517578,1.0000305-1.7585449,4.414032-.6208496,1.7932129-2.5864258,7.2763062-8.6901855,10.6558228-1.1381836.6207275-2.1381836,1.000061-2.3793945,1.000061-.1381836,0-.2070312-.0689697-.2070312-.1724243s.0688477-.1724243.6896973-.6552124c1.9311523-1.4138794,4.3105469-3.4484863,6.1728516-6.4141846,1.8967285-3.034668,2.5861816-5.9658813,2.5861816-7.5521851,0-.7586365-.1376953-1.4138489-.4482422-2.0345764-.2758789-.5517578-.3103027-.6207275-.3103027-.758667,0-.2758789.517334-.3103638.7241211-.3103638.5861816,0,1.0002441.0344849,1.8623047.3103638.2067871.0689697,1.1379395.4483032,1.3449707.4483032.965332,0,4.2758789-3.3105469,4.2758789-4.2071533,0-.241394-.2067871-.5172729-.6550293-.5172729-.5517578,0-6.7937012.4827881-12.3112793,2.1380615-.482666.1379395-2.4482422,1.000061-2.8964844,1.000061-.8276367,0-3.5175781-2.2070312-3.5175781-3.4140015,0-.0689697.0688477-.1379395.2414551-.1379395.1032715,0,1.482666.3103638,1.7585449.3448486Z"/>
        <path class="cls-3" d="m165.3828651,61.9375591c-.482666.0689697-.8276367.3448486-1.7241211,1.517334-1.9311523,2.6208191-4.2416992,5.7244568-7.310791,8.1039124-.4484863.3448486-1.517334,1.1724854-1.9311523,1.1724854-.0690918,0-.1379395,0-.1379395-.0689697s1.7587891-2.2415161,2.0690918-2.6898193c.6550293-.8966064,4.1037598-5.6900024,5.5175781-9.4143372.4482422-1.1724854.482666-1.3104248.6550293-1.3104248.3449707,0,2.793457,1.2414551,3.276123,1.517334.4138184.241394.5861816.5862427.4484863.8621216-.1035156.241394-.2414551.241394-.8623047.3103638Zm7.6901855-9.8626709c0,.2758789-.1379395.3793335-.6552734.8276367-.2758789.2069092-.4482422.5517578-.482666,1.3793945-.1035156,2.0346069-.1379395,4.1381836-.1379395,6.2072754,0,3.034668,0,14.9319153-.0344238,16.1388855,0,1.1035156-.0690918,2.6898193-1.5864258,3.793335-.9311523.6896973-2,.9310913-2.4484863.9310913q-.1723633,0-.5517578-1.0345459c-.4138184-1.0690308-.7585449-1.3104248-2.2758789-2.1380615-.4138184-.241394-.7243652-.4138184-.7243652-.5517578s.2070312-.1379395.3793945-.1379395c.4138184,0,2.2070312.1724243,2.5864258.1724243.7932129,0,1.6896973-.1379395,1.9655762-1.0690308.2414551-.8621216.2414551-9.6212769.2414551-11.1386108,0-6.17276-.1379395-10.724762-.2070312-13.2076721,0-.2069092-.1376953-1.0690308-.1376953-1.2759399s.2412109-.241394.3791504-.241394c.2758789,0,1.3793945.241394,1.7243652.3103638.8964844.1724243,1.9655762.4138184,1.9655762,1.0345459Zm11.0695801,20.2425842c-.7585449,0-.7929688-.0344849-2.3793945-2.8967285-1.7587891-3.1381226-4.1381836-6.5176086-5.7590332-8.0694275-.3103027-.3103638-.6206055-.6896973-.6206055-.8621216,0-.1379395.1379395-.1379395.2067871-.1379395.7932129,0,9.7937012,5.2416687,9.7937012,9.8626404,0,.3793335,0,2.1035767-1.2414551,2.1035767Z"/>
        <path class="cls-3" d="m216.3237831,61.0409527c1.6552734,0,1.8276367,0,2.3105469-.7931519.6896973-1.1380005.8964844-1.3449097,1.2070312-1.3449097.4135742,0,2.7932129,2.276001,2.7932129,2.5518799,0,.5172729-.6552734.5172729-1.8278809.5172729h-9.1384277c-.9309082,0-.9655762.5862427-.9655762,1.1035156,0,.4138184,0,4.4485168.1035156,4.655426.2070312.4483032.6896973.4483032.8964844.4483032h6.5178223c1.6208496,0,1.7932129,0,2.2070312-.5517578,1.1035156-1.517334,1.2414551-1.6897583,1.6552734-1.6897583.5861816,0,2.9655762,2.3449707,2.9655762,2.6898193,0,.4827881-.6896973.4827881-1.8276367.4827881h-11.5180664c-.8964844,0-1,.4827881-1,1.0345459,0,1.1035156.034668,5.8969116.034668,6.8969727,0,1.1380005-.034668,2.4139404-1.4829102,3.5864258-.8623047.6552124-1.7243652.7931519-2.3105469.7931519-.5517578,0-.5517578-.0689697-.6896973-1.0345459-.1379395-.758667-1.3793945-1.4828491-2.5864258-1.9656372-.1032715-.0344849-.3103027-.1379395-.3103027-.241394,0-.1724243.2070312-.1724243.3103027-.1724243,3.5864258,0,3.9658203,0,4.2416992-.4827881s.3449707-.7931519.3449707-7.3797607c0-.3793335,0-1.0345459-.9658203-1.0345459h-7.5175781c-3.0002441,0-4.0002441.0689697-4.3452148.0689697-.1032715.0344849-.6206055.1034546-.7241211.1034546-.1379395,0-.2067871-.1034546-.3103027-.241394l-.6552734-.7931519c-.1379395-.1379395-.1723633-.1724243-.1723633-.2069092,0-.0689697.0690918-.1034546.1379395-.1034546.2414551,0,1.3105469.1379395,1.517334.1379395,1.6896973.0689697,3.1037598.1034546,4.7243652.1034546h7.3452148c.2070312,0,.6899414,0,.8967285-.4138184.1035156-.2069092.1035156-4.2416077.1035156-4.6899109,0-.4827881-.0344238-1.1035156-1.0002441-1.1035156h-5.3793945c-3.0002441,0-4.0004883.0344849-4.3452148.0689697-.1035156,0-.6206055.1034546-.7241211.1034546-.1379395,0-.2070312-.1034546-.3105469-.241394l-.6550293-.7931519c-.0690918-.0689697-.1726074-.1724243-.1726074-.2069092,0-.0689697.0690918-.1034546.1381836-.1034546.2412109,0,1.3103027.1379395,1.5170898.1379395,1.6899414.1034546,3.1037598.1034546,4.7246094.1034546h5.2070312c.9658203,0,.9658203-.6207275.9658203-1.0690308,0-5.03479,0-5.1727295-1.2416992-5.1727295-.3791504,0-4.2070312.1724243-5.0002441.1724243-.5517578,0-5.3796387-.0344849-5.3796387-.4483032,0-.1034546,1.1726074-.2069092,1.4140625-.241394,4.6552734-.3793335,11.862793-1.1380005,15.7595215-2.5518799.8276367-.3103638,1.1035156-.4483032,2.1726074-1.000061.0688477-.0344849.2412109-.1034546.3447266-.1034546.2070312,0,1.6208496,1.1380005,1.9311523,1.3793945,1.1723633.8276367,1.2414551.8621216,1.2414551,1.1380005,0,.5862427-.3793945.6207275-3.1037598.7931519-.8620605.0344849-4.517334.3448486-5.1726074.7241821-.5517578.3103638-.5517578.6552124-.5517578,3.6553955,0,2.4484253,0,2.7243042,1,2.7243042h4.6555176Z"/>
        <path class="cls-3" d="m241.3320838,59.5581036c-.517334,0-.7243652.0689697-.8967285.3103638-.1723633.2758789-.1723633,4.414032-.1723633,4.6899109,0,.4483032,0,.758667.4138184.758667.5861816,0,3.5864258-1.2069397,3.9658203-1.2069397.1032715,0,.1376953.0689697.1376953.1723938,0,.4138184-1.9311523,1.3793945-3.4138184,2.1380615-.6552734.3448486-1.1035156.6552124-1.1035156,1.9311523,0,.8276367.1379395,8.0004883.1379395,9.1384888,0,3.7243652-3.034668,4.1036987-3.4829102,4.1036987-.2414551,0-.2758789-.1724243-.3793945-.5517578-.2070312-.8966064-.7932129-1.3449097-1.7587891-1.8966675-.0344238,0-1.1379395-.6552124-1.1379395-.6896973,0-.1034546.2758789-.1034546.3103027-.1034546.9311523,0,2.6552734,0,2.8276367-.0344849.7587891-.0689697.9658203-.241394,1.0002441-.9655762.0688477-1.6552734.1379395-3.0691528.1379395-5.2072144,0-.5172729.0344238-2.8277588.0344238-3.2070923-.0344238-.3793335-.1035156-.5517578-.2758789-.5517578-.4138184,0-3.2414551,1.7242432-3.3796387,1.7242432-.2067871,0-.7241211-.8276367-.965332-1.2414551-.0690918-.1034546-.8276367-1.3104248-.8276367-1.3449097,0-.1379395.1032715-.1379395.8620605-.1724243,1-.0344849,3.517334-.758667,3.9311523-.8966064.5517578-.2069092.7243652-.4138184.7243652-1.758728,0-.5172424.0688477-2.7932434.0688477-3.2760315,0-1.6207886,0-1.8966675-1.1035156-1.8966675-.8276367,0-2.3793945,0-3.1381836.1379395-.0688477,0-.3447266.0689697-.4138184.0689697-.1032715,0-.1723633-.1034546-.2758789-.241394l-.5517578-.7931519q-.1032715-.1724243-.1032715-.2069092c0-.0689697,0-.1034546.1032715-.1034546.1379395,0,.8967285.1034546,1.034668.1034546.2758789.0344849,3.1035156.1379395,3.4138184.1379395.5864258,0,1.1035156-.0344849,1.1035156-1.0345459,0-.2069092-.1032715-5.4141235-.1032715-5.552063-.0344238-.241394-.1726074-1.2414551-.1726074-1.4483643,0-.1379395,0-.3103638.2070312-.3103638.1035156,0,3.2070312.5862427,3.2070312,1.2414551,0,.1379395-.5517578.6552124-.6206055.7931519-.2758789.5862427-.2758789,1.0690308-.2758789,5.2416992,0,.9310913.2412109,1.0690308,1.0344238,1.0690308.2414551,0,.4829102,0,1.034668-.6552124.8276367-1.000061.9309082-1.1035156,1.1723633-1.1035156.4138184,0,2.034668,1.8966675,2.034668,2.2070312,0,.4483032-.3103027.4827881-1.5517578.4827881h-2.7932129Zm20.2080078-5.0003052c0,.4138184-.3793945.4483032-1.4482422.5862427-1.5175781.1724243-8.8972168,1.4483643-10.5869141,1.5863037-.9655762.0689697-1,.4138184-1,1.3104248,0,2.0690918,0,2.3104858.5170898,2.5863647.8276367.4827881,3.034668.4827881,5.5866699.4827881,5.3105469,0,6.1726074-.5517578,6.8625488-2.2415161.1376953-.3793335.6894531-2.3449707.7585449-2.3449707.1379395,0,.6208496,2.3449707.7932129,2.7587891.1035156.1724243.6552734,1.1380005.6552734,1.4138794,0,.8276367-1.6552734,1.6897583-2.8278809,2.0001221-1.0344238.2758789-5.4831543.4827881-6.793457.4827881-6.0004883,0-7.5178223-.5517578-7.7246094-2.2415161-.0690918-.5172729-.1035156-3.5519409-.1035156-5.3451538,0-.6896973-.1723633-4.0692139-.1723633-4.8278809,0-.241394.0344238-.2758789.2758789-.2758789.482666,0,1.9655762.241394,2.2414551.2758789.4138184.0689697.9311523.1379395.9311523.5862427,0,.1724243-.6896973.7241821-.7932129.8621216-.2067871.2758789-.2067871,2.3449707-.2067871,2.8622437,0,.8276367,0,1.0345459.482666,1.0345459,1,0,5.310791-1.6207886,7.1384277-2.5518799.3793945-.2069092,2.1035156-1.6897583,2.1379395-1.7242432.2414551-.0344849,3.276123,2.2415161,3.276123,2.7243042Zm-11.1386719,24.4152527c-.9311523,0-.9655762.5862427-.9655762,1.0345459-.0344238,1.0345459-.9309082,1.5518188-1.8276367,1.5518188-.8276367,0-.8276367-.7931519-.8276367-1.1035156,0-.241394.1035156-1.3104248.1035156-1.517334.0688477-1.2414551.0688477-2.276001.0688477-3.7243652,0-2.5863647,0-5.2761841-.1032715-7.828064,0-.2069092-.0690918-1.0690308-.0690918-1.2414551,0-.241394,0-.5517578.2067871-.5517578.2758789,0,1.4140625.6552124,1.6552734.758667.4484863.1724243.9658203.241394,1.4829102.241394h7.4833984c.2067871,0,.482666,0,.8620605-.2069092.2758789-.1379395,1.2758789-1.000061,1.5517578-1.000061.6208496,0,2.1726074,1.3793945,2.1726074,1.7932129,0,.2069092-.1379395.4138184-.517334.7931519-.517334.5172729-.482666.7241821-.482666,2.3449707,0,3.9657593.0344238,5.2416992.0344238,6.1038208.0344238.3103638.1379395,2.8967285.1379395,3.034668,0,1.3104248-1.2070312,1.7242432-1.7587891,1.7242432-.8276367,0-.8276367-.6552124-.8276367-1.1380005,0-.4138184,0-1.0690308-.9655762-1.0690308h-7.4143066Zm7.4487305-6.8624878c.5864258,0,1-.2069092,1-.9310913,0-3.6898804-.1032715-3.6898804-1.0344238-3.6898804h-7.4487305c-.5517578,0-.8276367.2069092-.9311523.6207275-.0344238.0689697-.0344238,2.8277588-.0344238,3.0691528,0,.5517578.2414551.9310913.9655762.9310913h7.4831543Zm0,5.9313965c.9655762,0,1.034668,0,1.034668-3.9657593,0-.6552124-.1723633-1.0345459-1.034668-1.0345459h-7.4831543c-.8967285,0-.9655762.5517578-.9655762.6207275v3.3795166c0,.4483032,0,1.000061.9655762,1.000061h7.4831543Z"/>
      </g>
      <g>
        <path d="m102.3608924,21.5699139c0,1.784668.0341797,2.0400391,1.0200195,2.125l.5439453.0507812c.1020508.0678711.0678711.3740234-.0341797.4248047-.96875-.0336914-1.546875-.0507812-2.2265625-.0507812-.6801758,0-1.2749023.0170898-2.362793.0507812-.1020508-.0507812-.1362305-.3398438,0-.4248047l.6118164-.0507812c.96875-.0849609,1.0537109-.340332,1.0537109-2.125v-7.5981445c0-.5268555,0-.5439453-.5097656-.5439453h-.9350586c-.730957,0-1.6655273.0341797-2.0908203.4248047-.4077148.3740234-.5776367.7480469-.7646484,1.1728516-.1362305.1020508-.3740234.0170898-.4418945-.1186523.2719727-.7651367.5268555-1.8530273.6459961-2.5327148.0507812-.0341797.2719727-.0512695.3227539,0,.1020508.5439453.6630859.5268555,1.4448242.5268555h6.8842773c.9179688,0,1.0708008-.0341797,1.3261719-.4760742.0849609-.0341797.2714844-.0170898.3056641.0507812-.1870117.6972656-.3056641,2.0742188-.2548828,2.5839844-.0678711.1357422-.3569336.1357422-.4418945.0341797-.0512695-.425293-.1699219-1.0541992-.425293-1.2412109-.390625-.2890625-1.0366211-.4248047-1.9716797-.4248047h-1.206543c-.5102539,0-.4931641.0170898-.4931641.578125v7.5639648Z"/>
        <path d="m107.5630409,18.6294842c0-3.3999023,2.5498047-6.0004883,6.0517578-6.0004883,3.9262695,0,5.8984375,2.8383789,5.8984375,5.8300781,0,3.434082-2.6181641,5.9326172-5.8984375,5.9326172-3.7739258,0-6.0517578-2.7026367-6.0517578-5.762207Zm10.25.3569336c0-2.8046875-1.2407227-5.8305664-4.4873047-5.8305664-1.7680664,0-4.0625,1.2070312-4.0625,4.9296875,0,2.515625,1.2236328,5.7792969,4.5722656,5.7792969,2.0400391,0,3.9775391-1.5297852,3.9775391-4.878418Z"/>
        <path d="m122.4722206,15.4507732c0-1.7851562-.0341797-2.0571289-1.0200195-2.1420898l-.4248047-.0336914c-.1020508-.0683594-.0678711-.3740234.0341797-.425293.8325195.0341797,1.3764648.0512695,2.1416016.0512695.6630859,0,1.2407227-.0170898,1.9716797-.0512695.1020508.0512695.1362305.3569336.0341797.425293l-.3232422.0336914c-.9858398.1020508-1.0195312.3569336-1.0195312,2.1420898v1.9545898c0,.3227539.0336914.6459961.2207031.6459961.1533203,0,.3569336-.1020508.4760742-.1870117.237793-.2041016.6796875-.6459961.8666992-.815918l1.8359375-1.8188477c.3232422-.3061523,1.1557617-1.1728516,1.3261719-1.4106445.0849609-.1191406.1186523-.2041016.1186523-.2719727,0-.0683594-.0678711-.1191406-.2890625-.1704102l-.4589844-.1015625c-.1186523-.1191406-.1015625-.340332.0341797-.425293.5952148.0341797,1.2749023.0512695,1.8696289.0512695.5952148,0,1.1728516-.0170898,1.6831055-.0512695.1191406.0849609.1357422.3232422.0336914.425293-.4418945.0336914-1.1044922.2036133-1.5805664.4755859s-1.4277344,1.0712891-2.3798828,1.972168l-1.5297852,1.4448242c-.237793.237793-.3911133.390625-.3911133.5268555,0,.1191406.1020508.2548828.3232422.5268555,1.6147461,1.8530273,2.9238281,3.3828125,4.2495117,4.7763672.4077148.4082031.7817383.6289062,1.3598633.6972656l.4589844.0507812c.1191406.0849609.0849609.3740234-.0341797.4248047-.4418945-.0336914-1.1049805-.0507812-1.9038086-.0507812-.6967773,0-1.2919922.0170898-2.0737305.0507812-.1191406-.0336914-.1699219-.3227539-.0678711-.4248047l.3911133-.0678711c.237793-.0341797.4077148-.0849609.4077148-.1699219,0-.1020508-.1191406-.2382812-.237793-.3911133-.3232422-.4077148-.7651367-.8666992-1.4111328-1.5976562l-1.3598633-1.5297852c-.96875-1.0878906-1.2407227-1.4282227-1.6489258-1.4282227-.2548828,0-.2885742.2211914-.2885742.815918v2.1928711c0,1.784668.0336914,2.0229492.9858398,2.125l.4589844.0507812c.1020508.0678711.0678711.3740234-.0341797.4248047-.8330078-.0336914-1.4106445-.0507812-2.0737305-.0507812-.6967773,0-1.2749023.0170898-1.9716797.0507812-.1020508-.0507812-.1362305-.3056641-.0341797-.4248047l.3398438-.0507812c.9008789-.1362305.9350586-.340332.9350586-2.125v-6.1191406Z"/>
        <path d="m131.9409706,18.6294842c0-3.3999023,2.5498047-6.0004883,6.0517578-6.0004883,3.9262695,0,5.8984375,2.8383789,5.8984375,5.8300781,0,3.434082-2.6181641,5.9326172-5.8984375,5.9326172-3.7739258,0-6.0517578-2.7026367-6.0517578-5.762207Zm10.25.3569336c0-2.8046875-1.2407227-5.8305664-4.4873047-5.8305664-1.7680664,0-4.0625,1.2070312-4.0625,4.9296875,0,2.515625,1.2236328,5.7792969,4.5722656,5.7792969,2.0400391,0,3.9775391-1.5297852,3.9775391-4.878418Z"/>
        <path d="m146.8501502,15.4673748c0-1.6147461-.0507812-1.9038086-.7480469-1.9887695l-.5439453-.0678711c-.1186523-.0849609-.1186523-.3569336.0170898-.4248047.9521484-.0849609,2.125-.1362305,3.7905273-.1362305,1.0541992,0,2.0571289.0849609,2.8388672.5102539.815918.4248047,1.4106445,1.1899414,1.4106445,2.3793945,0,1.6152344-1.2749023,2.4990234-2.1245117,2.8388672-.0849609.1020508,0,.2719727.0849609.4082031,1.3598633,2.1923828,2.2607422,3.5522461,3.4165039,4.5214844.2890625.2548828.7138672.4418945,1.1728516.4760742.0849609.0336914.1020508.1699219.0170898.237793-.152832.0507812-.4248047.0849609-.7480469.0849609-1.4448242,0-2.3115234-.4248047-3.5185547-2.1416016-.4418945-.6293945-1.1386719-1.8022461-1.6655273-2.5668945-.2553711-.3740234-.5273438-.5439453-1.2070312-.5439453-.7651367,0-.7988281.0170898-.7988281.3740234v2.1416016c0,1.784668.0336914,1.9887695,1.0195312,2.125l.3569336.0507812c.1020508.0849609.0683594.3740234-.0336914.4248047-.7651367-.0336914-1.3427734-.0507812-2.0229492-.0507812-.7138672,0-1.3256836.0170898-2.1245117.0507812-.1020508-.0507812-.1362305-.3056641-.0341797-.4248047l.4248047-.0507812c.9858398-.1191406,1.0200195-.340332,1.0200195-2.125v-6.1025391Zm1.394043,2.4311523c0,.3056641,0,.4926758.0507812.5605469.0507812.0512695.3061523.0854492,1.1728516.0854492.6118164,0,1.2578125-.0683594,1.7509766-.4423828.4589844-.3569336.8496094-.9516602.8496094-2.1074219,0-1.3432617-.8325195-2.6181641-2.7197266-2.6181641-1.0537109,0-1.1044922.0683594-1.1044922.5439453v3.9780273Z"/>
        <path d="m155.8091346,18.6294842c0-3.3999023,2.5498047-6.0004883,6.0517578-6.0004883,3.9262695,0,5.8984375,2.8383789,5.8984375,5.8300781,0,3.434082-2.6181641,5.9326172-5.8984375,5.9326172-3.7739258,0-6.0517578-2.7026367-6.0517578-5.762207Zm10.25.3569336c0-2.8046875-1.2407227-5.8305664-4.4873047-5.8305664-1.7680664,0-4.0625,1.2070312-4.0625,4.9296875,0,2.515625,1.2236328,5.7792969,4.5722656,5.7792969,2.0400391,0,3.9775391-1.5297852,3.9775391-4.878418Z"/>
        <path d="m174.5259315,16.4366131c.8837891-1.2578125,1.3769531-1.9038086,1.6489258-2.4140625.1191406-.2036133.2041016-.3398438.2041016-.4589844,0-.0849609-.1704102-.1357422-.6123047-.1357422h-2.5327148c-1.3598633,0-2.1245117.1191406-2.5327148.5610352-.3569336.390625-.6118164.8666992-.7480469,1.1557617-.152832.0678711-.3569336.0170898-.4248047-.1191406.2041016-.5947266.4931641-1.6147461.6967773-2.5498047.0683594-.0507812.2041016-.0507812.2890625,0,.0512695.4082031.3061523.425293,1.6831055.425293h4.4873047c1.2241211,0,1.7680664-.0170898,1.9550781-.0512695.0678711.0170898.1015625.0849609.1015625.1533203-.4584961.390625-1.9033203,2.362793-2.7875977,3.637207l-2.8046875,4.0458984c-.1870117.2719727-1.6826172,2.3798828-1.6826172,2.6347656,0,.1699219.1699219.2041016.4760742.237793.4418945.0341797,1.3256836.0341797,2.515625.0341797,1.0878906,0,2.4985352-.0341797,3.1445312-.3911133.4931641-.2719727.9008789-.9008789,1.1899414-1.5639648.152832-.0507812.3740234-.0336914.4248047.1191406-.152832.7817383-.4926758,1.9887695-.7646484,2.4135742-.9350586-.0336914-1.9038086-.0507812-3.09375-.0507812h-4.3686523c-.9008789,0-1.5126953.0341797-1.9038086.0507812-.0678711-.0336914-.0849609-.1186523-.0849609-.2036133.3569336-.340332,1.3256836-1.546875,1.8530273-2.3120117l3.6713867-5.2182617Z"/>
        <path d="m186.561576,20.1763592c-.1191406-.3740234-.1870117-.425293-.6972656-.425293h-2.5664062c-.425293,0-.5273438.0512695-.6459961.4082031l-.5952148,1.784668c-.2548828.7651367-.3740234,1.2236328-.3740234,1.4106445,0,.2041016.0854492.3061523.4931641.340332l.5610352.0507812c.1191406.0849609.1191406.3569336-.0341797.4248047-.4418945-.0336914-.96875-.0336914-1.7675781-.0507812-.5610352,0-1.1728516.0341797-1.6318359.0507812-.1020508-.0678711-.1362305-.3398438-.0341797-.4248047l.5610352-.0507812c.4077148-.0341797.7817383-.2211914,1.0200195-.8330078.3056641-.7822266.7817383-1.8867188,1.4956055-3.7905273l1.7338867-4.5898438c.237793-.6118164.3398438-.9345703.2890625-1.206543.4077148-.1191406.6967773-.425293.8837891-.6459961.1020508,0,.2211914.0336914.2548828.152832.2211914.7480469.4931641,1.5297852.7480469,2.277832l2.3286133,6.8334961c.4931641,1.4614258.7138672,1.7167969,1.4448242,1.8017578l.4589844.0507812c.1191406.0849609.0849609.3569336,0,.4248047-.6967773-.0336914-1.2915039-.0507812-2.0566406-.0507812-.815918,0-1.4619141.0341797-1.9545898.0507812-.1362305-.0678711-.1533203-.3398438-.0341797-.4248047l.4931641-.0507812c.3569336-.0341797.5947266-.1362305.5947266-.3061523,0-.1870117-.0849609-.4926758-.2211914-.9008789l-.7475586-2.3115234Zm-3.3657227-1.5131836c-.1362305.3911133-.1191406.4082031.3569336.4082031h2.0908203c.4926758,0,.5268555-.0683594.3740234-.5268555l-.9179688-2.7709961c-.1362305-.4077148-.2890625-.8666992-.3911133-1.0708008h-.0336914c-.0512695.0849609-.2211914.4926758-.4082031,1.0029297l-1.0708008,2.9575195Z"/>
        <path d="m188.483451,13.2579022c-.1020508-.1020508-.0849609-.3398438.0507812-.4082031.4589844.0341797,1.2236328.0512695,1.7509766.0512695.4755859,0,1.3427734-.0170898,1.9375-.0512695.1533203.0512695.1362305.2890625.0341797.4082031l-.3911133.0336914c-.3569336.0341797-.5610352.1362305-.5610352.2890625,0,.2041016.3574219,1.0708008.8842773,2.277832.9516602,2.125,1.9545898,4.2495117,2.9404297,6.340332.4082031-.8496094.8671875-1.8017578,1.309082-2.753418.152832-.3232422.2719727-.6123047.2719727-.6972656s-.0512695-.237793-.1362305-.4418945c-.5947266-1.3598633-1.2236328-2.7197266-1.8696289-4.0795898-.2548828-.5268555-.5097656-.8837891-1.0878906-.9350586l-.4082031-.0336914c-.1186523-.1362305-.1015625-.3398438.0341797-.4082031.4931641.0341797,1.1391602.0512695,1.8188477.0512695.8500977,0,1.4790039-.0170898,1.8696289-.0512695.1191406.0512695.1362305.2719727.0341797.4082031l-.4418945.0336914c-.6630859.0512695-.6801758.1704102-.3569336.9350586.3569336.8330078.8330078,1.9038086,1.3085938,2.9575195.3232422-.6625977.6289062-1.3085938,1.0029297-2.2265625.6123047-1.4448242.5268555-1.6318359-.0170898-1.6660156l-.5097656-.0336914c-.1191406-.1699219-.0849609-.3569336.0341797-.4082031.4589844.0341797.96875.0512695,1.5976562.0512695.5610352,0,1.2407227-.0170898,1.6318359-.0512695.1191406.0512695.1362305.2719727.0341797.4082031l-.4931641.0336914c-.7138672.0512695-1.0200195.815918-1.3935547,1.5131836-.3574219.6289062-1.0712891,2.1079102-1.3261719,2.7026367-.0849609.1699219-.152832.3398438-.152832.4077148,0,.0683594.0336914.2041016.1191406.4082031.5776367,1.309082,1.1728516,2.5834961,1.7333984,3.8754883.5273438-1.1899414,1.0371094-2.3798828,1.5302734-3.5864258.3398438-.815918,1.2407227-3.0766602,1.3598633-3.3828125.2207031-.6118164.5097656-1.3427734.5097656-1.546875,0-.237793-.2041016-.3740234-.5610352-.3911133l-.4926758-.0336914c-.1362305-.152832-.1191406-.3398438.0166016-.4082031.6459961.0341797,1.1049805.0512695,1.6318359.0512695.6459961,0,1.1391602-.0170898,1.5810547-.0512695.1357422.0512695.152832.2719727.0341797.4082031l-.3232422.0336914c-.8496094.0849609-1.0029297.5952148-2.0229492,2.9580078l-1.2407227,2.8725586c-.7480469,1.7338867-1.4277344,3.3999023-2.1245117,5.21875-.0512695.0336914-.1191406.0507812-.2041016.0507812s-.1699219-.0170898-.2382812-.0507812c-.5439453-1.5131836-1.5297852-3.6376953-2.0566406-4.8276367-.6118164,1.2407227-1.6318359,3.4165039-2.1245117,4.8276367-.0512695.0336914-.1191406.0507812-.2041016.0507812s-.1699219-.0170898-.2548828-.0507812c-.2890625-.7143555-.9521484-2.2441406-1.1728516-2.7368164-1.0878906-2.362793-2.1420898-4.7255859-3.2470703-7.0883789-.3227539-.6967773-.5268555-1.1557617-1.2407227-1.2241211l-.4077148-.0336914Z"/>
        <path d="m210.4976112,20.1763592c-.1191406-.3740234-.1870117-.425293-.6972656-.425293h-2.5664062c-.425293,0-.5268555.0512695-.6459961.4082031l-.5952148,1.784668c-.2548828.7651367-.3735352,1.2236328-.3735352,1.4106445,0,.2041016.0849609.3061523.4926758.340332l.5610352.0507812c.1191406.0849609.1191406.3569336-.0341797.4248047-.4418945-.0336914-.96875-.0336914-1.7675781-.0507812-.5610352,0-1.1728516.0341797-1.6318359.0507812-.1020508-.0678711-.1362305-.3398438-.0341797-.4248047l.5610352-.0507812c.4077148-.0341797.7817383-.2211914,1.0200195-.8330078.3056641-.7822266.7817383-1.8867188,1.4956055-3.7905273l1.7338867-4.5898438c.237793-.6118164.3398438-.9345703.2890625-1.206543.4077148-.1191406.6967773-.425293.8837891-.6459961.1020508,0,.2211914.0336914.2548828.152832.2211914.7480469.4931641,1.5297852.7480469,2.277832l2.3286133,6.8334961c.4931641,1.4614258.7143555,1.7167969,1.4448242,1.8017578l.4589844.0507812c.1191406.0849609.0849609.3569336,0,.4248047-.6967773-.0336914-1.2915039-.0507812-2.0566406-.0507812-.815918,0-1.4619141.0341797-1.9545898.0507812-.1362305-.0678711-.1533203-.3398438-.0341797-.4248047l.4931641-.0507812c.3569336-.0341797.5947266-.1362305.5947266-.3061523,0-.1870117-.0849609-.4926758-.2211914-.9008789l-.7475586-2.3115234Zm-3.3657227-1.5131836c-.1362305.3911133-.1191406.4082031.3569336.4082031h2.0908203c.4926758,0,.5268555-.0683594.3740234-.5268555l-.9179688-2.7709961c-.1362305-.4077148-.2890625-.8666992-.3911133-1.0708008h-.0341797c-.0507812.0849609-.2207031.4926758-.4077148,1.0029297l-1.0708008,2.9575195Z"/>
      </g>
    </g>
  </g>
</svg>