<?xml version="1.0" encoding="UTF-8"?>
<svg id="_レイヤー_2" data-name="レイヤー 2" xmlns="http://www.w3.org/2000/svg" viewBox="0 0 565.1342413 41.3178418">
  <defs>
    <style>
      .cls-1 {
        fill: #c81d1d;
      }

      .cls-2 {
        fill: #1e2b68;
      }

      .cls-3 {
        fill: #231815;
      }
    </style>
  </defs>
  <g id="_レイヤー_2-2" data-name="レイヤー 2">
    <g>
      <path class="cls-2" d="m12.2120602,20.3409922h1.9808236c.6404492,0,1.4617597.1070569,1.4617597.8729465v6.8889134s-2.22819.8178339-6.2533686.8178339c-4.0230158,0-9.401275-2.2152134-9.401275-8.350711,0-6.1317128,5.6107566-8.5185957,9.7548873-8.5185957,1.8707929,0,4.2030661.1103011,4.2030661,1.1600538v2.0481397c-1.5744939-1.2846832-2.2135914-1.5228961-4.6058813-1.5228961-2.4020224,0-6.697817,1.5718287-6.697817,6.6943406,0,5.0960181,5.7599875,8.1390303,10.5556515,6.2130869v-3.9103195c0-.8201911-.064883-2.3927925-.9978463-2.3927925Z"/>
      <path class="cls-2" d="m42.293707,28.5032722h5.0757423c-1.3982284-.5252819-1.9808236-2.2130506-2.450955-3.4428536-.4725644-1.2211519-4.1479155-10.1582429-4.5482976-11.3850721-.4174139-1.223585-.9916284-1.223585-1.4704108-1.223585h-2.9062173c1.395525.4695906.6266615,1.4617597.3941642,2.1608356-.2289829.6959083-5.1308928,12.8493031-5.1308928,12.8493031-1.6969605-.4668872-5.9695055-6.7175521-5.9695055-6.7175521,5.6645554-1.6299147,4.8002599-8.2925867-.7518317-8.2925867h-6.3661027c1.2879274.2903514,1.1716787,1.6388362,1.1716787,2.6885888v11.0336226c0,1.5144771-.46905,1.9288793-1.2268292,2.3292993h4.6669794c-1.2819798-.5804324-.9402627-1.9259434-.9402627-2.5666629v-11.904136h2.5182711c1.3492959,0,2.3347063,1.6361327,2.3347063,2.7464428,0,1.7986105-1.4066092,2.5036723-2.7986197,3.0259804-1.4068795.5244708-.6439637,1.6937164,0,2.6247872.6401788.9370185,2.5061055,3.5698782,3.6250667,4.8554103,1.1054439,1.2849535,2.0995054,1.2181781,2.6223542,1.2181781h4.2027957c-1.626941-.5190639-.7542648-1.7977995-.5250115-2.4417631.2387153-.6472078,1.2854942-3.3912175,1.2854942-3.3912175h6.306086s.7626455,1.9808236,1.4617597,3.7413153c.7077653,1.7431896.1676144,1.9783905-.5801621,2.0916654Zm-6.5439903-7.7013404l2.3922899-6.2474208,2.5734216,6.2474208h-4.9657115Z"/>
      <path class="cls-2" d="m93.4385352,28.5032722h5.0906113c-1.410394-.5252819-1.9894747-2.2130506-2.4533881-3.4428536-.4641837-1.2211519-4.1489969-10.1582429-4.5542452-11.3850721-.412818-1.223585-.9867621-1.223585-1.4655445-1.223585h-2.913787c1.4093126.4695906.6404492,1.4617597.4028152,2.1608356-.2324974.6959083-5.1395439,12.8493031-5.1395439,12.8493031-.3254963.7629158-.8042787.7742703-1.1054439,1.041372h4.2054992c-1.6358624-.5190639-.7604827-1.7977995-.527715-2.4417631.231416-.6472078,1.2903605-3.3912175,1.2903605-3.3912175h6.3036529s.7688634,1.9808236,1.4666259,3.7413153c.6966811,1.7431896.1689661,1.9783905-.5998973,2.0916654Zm-6.531284-7.7013404l2.3922899-6.2474208,2.5672037,6.2474208h-4.9594936Z"/>
      <path class="cls-2" d="m75.47622,28.8020043c.5825952-.527715,1.1103102-.9397599,1.1103102-2.8024424v-11.0362881c0-.8726762-.0673161-1.8737666-1.1103102-2.221161h4.4869291c-.4639134.4141697-1.018663.9332337-1.018663,2.1081564v11.1492926c0,.9954511-.2033,2.4577515,1.0846273,2.8024424h-4.5528935Z"/>
      <path class="cls-2" d="m51.2821639,16.1846961s-.0575837,8.8145864-.0575837,9.8148658c0,.9954511.1186818,2.4577515,1.4030947,2.8024424h-4.2665973c.5950311-.527715,1.0502934-.9397599,1.0502934-2.8024424,0-1.8645369.1248998-10.1687485.1248998-11.0362881,0-.8726762-.1248998-1.8737666-1.1751932-2.221161h3.2809166l9.8040902,12.3183058v-10.0357763c0-.6469375.1186818-1.8683597-1.2243961-2.3352469h4.3768984c-.5190639.4001118-1.2917122.5801621-1.2917122,2.2738784v14.4881011s-1.2181781.223576-3.1990018-2.1662808c-1.9919078-2.3898568-8.8257088-11.100398-8.8257088-11.100398Z"/>
      <path class="cls-1" d="m79.1880678,41.2338553c-12.8411548-10.8249535-17.7565821-23.5641498-.1908641-40.9471135.5509647-.5506944,1.0724618-.2233056.6401788.2695347-7.6980965,8.8035018-16.2864416,22.8820674-.1762655,40.1412128.2497995.2608837.1568006.8350981-.2730493.536366Z"/>
      <g>
        <path class="cls-3" d="m280.0204108,8.5473458c0-.388031.5432739-.388031.8536987-.388031,2.7161865,0,3.6087036,2.0177612,3.6087036,2.1729736,0,.4656372-.3880615.9700928-1.1641235,1.940155-.1940308.271637-.3104248.4268494-.3104248.6208496,0,.3104248.4656372.3104248.6208496.3104248.3880005,0,3.2594604-.4268494,5.8980713-1.552124.4656372-.1940002,1.3969116-.6208496,1.8237305-.6208496.3492432,0,.5432739.1164246,2.1342163,1.047699.2327881.116394,1.2416992.6596375,1.4356689.776062.4268799.2716064.7373047.6596375.7373047.9700623,0,.5432434-.2716675.6984558-1.552124,1.4745178-.4268799.2716064-.5820923.5044556-1.9401855,2.5997925-1.9789429,3.104248-6.1696777,9.4679565-13.8914795,14.5899658-4.2683716,2.7938232-7.4890137,3.7250977-7.7218628,3.7250977-.1940308,0-.3491821-.1552124-.3491821-.3492432,0-.1551514.116394-.2327881,1.3192749-.8924561,11.8349609-6.5189209,19.2075195-19.7507629,19.2075195-20.9536743,0-.3492126-.3104248-.4268188-.4268188-.4268188-.0776367,0-5.4324341,1.2028809-6.3637085,1.2028809-.2328491,0-1.2805176-.116394-1.5133057-.116394-.7372437,0-.8148804.0776062-2.4446411,1.9401245-2.3669434,2.6386719-3.3370361,3.647522-5.2772217,5.0444336-1.5908813,1.1640625-3.2593994,2.0565796-3.7250977,2.0565796-.1939697,0-.2716064-.116394-.2716064-.2328491,0-.2716064,2.5998535-2.4445801,3.0654297-2.9102173,3.1430664-3.1430664,6.8293457-8.4978638,6.5189209-10.8260498-.0387573-.1940308-.2716064-1.047699-.2716064-1.2029114Zm18.2762451,1.3193054c0,.659668-.4655762,1.5133057-1.1252441,1.5133057-.5432739,0-.8536987-.2327881-2.0565796-1.6685181-.776062-.8924561-1.1641235-1.164093-2.7550049-2.2893677-.1940308-.1164246-.5820923-.3880615-.5820923-.5432739s.3104248-.3492126.659668-.3492126c4.9667969,0,5.8592529,2.8714294,5.8592529,3.3370667Zm.9312744-5.8592529c1.5909424.9312744,1.5909424,1.8237305,1.5909424,2.2117615,0,.5820618-.3880005,1.1252747-.9700928,1.1252747-.8148193,0-1.2028809-.3880005-2.0565186-1.2804871-.6208496-.6596375-2.2506104-1.552124-3.5698853-1.9013367-.3880615-.1164246-.5044556-.3104248-.5044556-.4268494,0-.3104248,1.0089111-.5432434,1.3969116-.5432434,1.5133057,0,2.7938232,0,4.1130981.8148804Z"/>
        <path class="cls-3" d="m311.9099982,34.2349983c12.1065674-6.5189209,15.2884521-14.9003906,15.2884521-15.715271,0-.4656372-.2716675-.7372437-.8148804-.7372437-1.3193359,0-11.0588989,1.7073364-12.7662354,2.211792-.2716064.0775757-1.5133057.6596069-1.7849121.6596069-1.6685791,0-4.423584-3.3370361-4.423584-4.4235229,0-.116394.1164551-.1940308.2328491-.1940308s.5820312.2716064.6984253.3104248c.7373047.3104248,2.211792.659668,3.8415527.659668,3.1818237,0,10.9036255-1.0089111,12.3393555-1.1640625.0776367,0,2.6386108-.2328491,2.6774292-.2328491.1940308-.0776062.9312744-.4268188,1.1253052-.4268188.6596069,0,3.4146729,2.2893677,3.4146729,3.1818237,0,.5820923-.1552734.7372437-1.0477295,1.4745483-.659668.5432129-1.0476685,1.1252441-2.0953369,2.7550049-3.0654297,4.6563721-5.4712524,7.5665894-10.9425049,10.3604126-3.4534912,1.7461548-6.5189209,2.5222168-6.8681641,2.5222168-.3104248,0-.3491821-.2328491-.3491821-.3104248s.0387573-.1940308.0775757-.2328491c.0776367-.0775757,1.1641235-.5820312,1.3969116-.6984253Zm.9700928-25.3772278c.6208496.1552124,1.5133057.1552124,2.0565796.1552124,1.8237305,0,4.3847656-.0776062,6.2084961-.4268494.5820312-.116394,3.2594604-.776062,3.8026733-.776062.659668,0,2.3670044.3492432,2.3670044,1.4745483,0,1.2028809-1.3580933,1.3192749-3.6087036,1.5133057-.6208496.0776062-8.963501.8148804-9.2351074.8148804-2.0565796,0-3.2206421-2.6386108-3.2206421-2.9102478,0-.1940002.0775757-.271637.2327881-.271637.2327881,0,1.1640625.3880615,1.3969116.4268494Z"/>
        <path class="cls-3" d="m351.0177862,28.4533211c-1.0087891.7373047-2.987793,2.211792-3.8027344,3.1818848-.7370605.8924561-.8146973.9700928-1.3967285.9700928-2.095459,0-4.9667969-2.4833984-4.9667969-4.0355225,0-.2716675.0388184-2.0565796.3879395-2.0565796.1552734,0,1.0087891.6596069,1.1640625.7372437.5043945.3104248,1.7849121.8924561,2.6386719.8924561,1.9013672,0,12.184082-6.8681641,18.6254883-13.231842.6208496-.6208496,1.7072754-1.7073364,1.7849121-1.7073364s.1940918.1164246.1940918.1940002c0,.3492432-4.5400391,7.6054077-14.6289062,15.055603Zm-3.1818848-12.7662048c-1.0476074,0-1.4355469-.6208496-2.7160645-2.5610046-1.3193359-1.9789429-2.4445801-2.5610046-3.5310059-3.1818542-.1552734-.0776062-.3493652-.1940002-.3493652-.3492126s.3105469-.3492432.8537598-.3492432c4.1518555,0,7.411377,2.211792,7.411377,4.5011597,0,1.164093-.659668,1.940155-1.6687012,1.940155Z"/>
        <path class="cls-3" d="m379.9972784,19.8002449c0,.776062-.5820312,1.9401855-1.5134277,1.9401855-.5820312,0-.776123-.2328491-1.3581543-1.2029419-.8146973-1.3969116-2.1340332-2.4057617-3.5310059-3.2206421-.1164551-.0776367-.3493652-.2327881-.3493652-.3880615,0-.5432129,2.2119141-.5820312,2.7163086-.5820312,1.668457,0,4.0356445,1.552124,4.0356445,3.4534912Zm-4.7729492,12.0289307c-.1164551-.1939697-.8146973-1.0088501-.9311523-1.2028809-.1164551-.1939697-.2329102-.5043945-.2329102-.7372437,0-.1552124.1164551-.2716064.3493652-.2716064.3491211,0,1.8237305.5044556,2.1340332.5044556,1.668457,0,12.1066895-5.8204956,21.3806152-16.3361206.1938477-.2328491,1.552002-1.7461548,1.668457-1.7461548.0776367,0,.1552734.0388184.1552734.1552124,0,.4268188-3.4147949,8.7307129-19.479248,19.9835815-.4655762.3104248-2.328125,2.0565796-2.8325195,2.0565796-.8537598,0-1.2416992-.6208496-2.2119141-2.4058228Zm9.4291992-19.7507324c0,.8924561-.6208496,1.7461243-1.2416992,1.7461243-.4267578,0-.6208496-.1552124-2.0178223-1.823761-1.0476074-1.2416992-2.4057617-1.7849121-3.3369141-2.0565491-.1552734-.0387878-.5820312-.1552124-.5820312-.271637,0-.116394,1.0864258-.7372437,2.987793-.7372437,4.1906738,0,4.1906738,3.0266418,4.1906738,3.1430664Z"/>
        <path class="cls-3" d="m409.3256476,11.5739876c.776123.116394,1.6298828.1552124,2.4445801.1552124,3.4536133,0,14.9780273-1.8237305,16.0644531-2.2505798.2717285-.1164246,1.3581543-.8924866,1.5910645-.8924866.892334,0,4.5788574,3.7250977,4.5788574,5.0444336,0,.2716064,0,.6984253-1.3581543,1.0088501-1.3581543.271637-7.295166,2.4446411-8.1098633,3.5310669-.4655762.659668-.6208496,1.1253052-1.9790039,4.9667969-.6984863,2.0178223-2.9101562,8.1875-9.7783203,11.9901733-1.2805176.6984863-2.4057617,1.1253052-2.6774902,1.1253052-.1552734,0-.2329102-.0776367-.2329102-.1940308s.0776367-.1940308.776123-.7372437c2.1730957-1.5909424,4.8503418-3.8803101,6.9458008-7.2174072,2.1342773-3.4146729,2.9101562-6.7128906,2.9101562-8.4978638,0-.8536377-.1550293-1.5908813-.5043945-2.2893677-.3103027-.6208496-.3491211-.6984863-.3491211-.8536377,0-.3104248.5820312-.3492432.8146973-.3492432.659668,0,1.1254883.0388184,2.095459.3492432.2329102.0775757,1.2805176.5043945,1.5134277.5043945,1.0864258,0,4.8115234-3.7250977,4.8115234-4.7339478,0-.271637-.2329102-.5820618-.7373047-.5820618-.6208496,0-7.6442871.5432434-13.8527832,2.4057922-.5432129.1552124-2.7548828,1.1253052-3.2592773,1.1253052-.9313965,0-3.9580078-2.4833984-3.9580078-3.8415222,0-.0776062.0776367-.1552124.2714844-.1552124.1164551,0,1.6687012.3492126,1.9790039.388031Z"/>
        <path class="cls-3" d="m454.562464,16.152784c-.543457.0775757-.9313965.3880005-1.9401855,1.7072754-2.1730957,2.9490967-4.7729492,6.4413452-8.2263184,9.1187744-.5043945.3880005-1.7072754,1.3192749-2.1730957,1.3192749-.0773926,0-.1550293,0-.1550293-.0775757,0-.0776367,1.9790039-2.5222168,2.328125-3.0266724.7373047-1.0088501,4.6176758-6.4025269,6.2084961-10.5932312.5043945-1.3193054.5432129-1.4745178.7373047-1.4745178.3879395,0,3.1430664,1.3969116,3.6862793,1.7073364.4655762.2716064.659668.659668.5043945.9700928-.1164551.2716064-.2717285.2716064-.9699707.3492432Zm8.6530762-11.0977173c0,.3104248-.1552734.4268188-.7373047.9312744-.3105469.2328186-.5043945.6208496-.5432129,1.552124-.1164551,2.2893677-.1552734,4.6563721-.1552734,6.9845581,0,3.4146729,0,16.8017578-.0388184,18.1598511,0,1.2416992-.0776367,3.0266724-1.7849121,4.2683716-1.0476074.776001-2.2504883,1.0476685-2.755127,1.0476685q-.1938477,0-.6208496-1.1641235c-.4655762-1.2028809-.8535156-1.4744873-2.5610352-2.4057617-.4655762-.2716064-.8146973-.4656372-.8146973-.6208496s.232666-.1552124.4267578-.1552124c.4655762,0,2.4833984.1940308,2.9101562.1940308.8925781,0,1.9013672-.1552734,2.2119141-1.2029419.2714844-.9700317.2714844-10.8260498.2714844-12.5333862,0-6.9457397-.1550293-12.067749-.232666-14.8615723,0-.2328491-.1552734-1.2029114-.1552734-1.43573s.2717285-.2716064.4267578-.2716064c.3105469,0,1.5522461.2716064,1.9401855.3492126,1.0090332.1940002,2.2119141.4656372,2.2119141,1.164093Zm12.4558105,22.7774048c-.8537598,0-.8925781-.0388184-2.6774902-3.2594604-1.9790039-3.5310669-4.6564941-7.3338013-6.4802246-9.079895-.3491211-.3492432-.6984863-.776062-.6984863-.9700928,0-.1552124.1552734-.1552124.2329102-.1552124.8925781,0,11.0200195,5.8980713,11.0200195,11.0977173,0,.4268188,0,2.3669434-1.3967285,2.3669434Z"/>
        <path class="cls-3" d="m511.8659308,15.1438729c1.8625488,0,2.0566406,0,2.5998535-.8924561.776123-1.2805176,1.0087891-1.5133362,1.3581543-1.5133362.4655762,0,3.1430664,2.5610046,3.1430664,2.8714294,0,.5820312-.7373047.5820312-2.0566406.5820312h-10.2827148c-1.0478516,0-1.0866699.659668-1.0866699,1.2416992,0,.4656372,0,5.0056152.1164551,5.2384644.2329102.5043945.776123.5043945,1.0087891.5043945h7.3339844c1.8237305,0,2.0175781,0,2.4833984-.6208496,1.2416992-1.7073364,1.3967285-1.9013672,1.8625488-1.9013672.659668,0,3.3369141,2.6386719,3.3369141,3.0266724,0,.5432739-.7758789.5432739-2.0563965.5432739h-12.9604492c-1.0087891,0-1.1252441.5432129-1.1252441,1.1640625,0,1.2416992.0388184,6.6353149.0388184,7.7606201,0,1.2805176-.0388184,2.7161865-1.668457,4.0355225-.9702148.7372437-1.9401855.8924561-2.5998535.8924561-.6208496,0-.6208496-.0775757-.776123-1.1640625-.1550293-.8536987-1.552002-1.6685791-2.9101562-2.211792-.1164551-.0388184-.3491211-.1552124-.3491211-.2716064,0-.1940308.232666-.1940308.3491211-.1940308,4.0356445,0,4.4624023,0,4.7727051-.5432739.3105469-.5432129.3881836-.8924561.3881836-8.303833,0-.4268188,0-1.1640625-1.0866699-1.1640625h-8.4589844c-3.3757324,0-4.5012207.0775757-4.8891602.0775757-.1164551.0388184-.6984863.116394-.8149414.116394-.1550293,0-.232666-.116394-.3491211-.2716064l-.7373047-.8924561c-.1552734-.1552124-.1940918-.1940308-.1940918-.2328491,0-.0775757.0776367-.116394.1552734-.116394.2717285,0,1.4746094.1552124,1.7072754.1552124,1.9013672.0775757,3.4924316.116394,5.3161621.116394h8.2648926c.2329102,0,.776123,0,1.0090332-.4656372.1164551-.2327881.1164551-4.7727661.1164551-5.2772217,0-.5432129-.0388184-1.2416992-1.1254883-1.2416992h-6.0532227c-3.3757324,0-4.5012207.0388184-4.8891602.0776367-.1164551,0-.6984863.116394-.8149414.116394-.1550293,0-.232666-.116394-.3491211-.2716064l-.7373047-.8924866c-.0776367-.0776062-.1940918-.1940002-.1940918-.2328186,0-.0776062.0776367-.116394.1552734-.116394.2717285,0,1.4746094.1552124,1.7072754.1552124,1.9013672.116394,3.4924316.116394,5.3161621.116394h5.8591309c1.0866699,0,1.0866699-.6984558,1.0866699-1.2028809,0-5.6652832,0-5.8204956-1.3969727-5.8204956-.4267578,0-4.7338867.1940308-5.6264648.1940308-.6208496,0-6.0532227-.0388184-6.0532227-.5044556,0-.116394,1.3193359-.2327881,1.5908203-.2716064,5.2385254-.4268188,13.3483887-1.2805176,17.7331543-2.8714294.9311523-.3492126,1.2416992-.504425,2.4445801-1.1252747.0776367-.0388184.2714844-.1164246.3879395-.1164246.2329102,0,1.8237305,1.2804871,2.1730957,1.552124,1.3190918.9312744,1.3967285.9700623,1.3967285,1.2804871,0,.659668-.4267578.6984863-3.4921875.8924866-.9699707.0387878-5.083252.388031-5.8205566.8148499-.6208496.3492432-.6208496.7372742-.6208496,4.1131592,0,2.7550049,0,3.0654297,1.1254883,3.0654297h5.2382812Z"/>
        <path class="cls-3" d="m539.9897101,13.4753548c-.5820312,0-.8149414.0775757-1.0087891.3492126-.1940918.3104248-.1940918,4.9667664-.1940918,5.2771912,0,.5044556,0,.8536987.4655762.8536987.659668,0,4.0356445-1.3580933,4.4624023-1.3580933.1164551,0,.1552734.0775757.1552734.1939697,0,.4656982-2.1730957,1.552124-3.8415527,2.4058228-.7373047.3880005-1.2416992.7372437-1.2416992,2.1729736,0,.9312744.1552734,9.0023193.1552734,10.2828369,0,4.1907349-3.4147949,4.6175537-3.9191895,4.6175537-.2714844,0-.3103027-.1940308-.4267578-.6208496-.2329102-1.0088501-.8925781-1.5133057-1.9790039-2.1341553-.0388184,0-1.2805176-.7372437-1.2805176-.776062,0-.1164551.3105469-.1164551.3491211-.1164551,1.0478516,0,2.9880371,0,3.1818848-.0387573.8537598-.0776367,1.0866699-.2716675,1.1254883-1.0864868.0773926-1.8625488.1550293-3.4534912.1550293-5.8592529,0-.5820923.0388184-3.1818848.0388184-3.6087036-.0388184-.4268188-.1164551-.6208496-.3103027-.6208496-.4658203,0-3.6474609,1.9401245-3.8027344,1.9401245-.2329102,0-.8149414-.9312744-1.0864258-1.3969116-.0776367-.116394-.9313965-1.4744873-.9313965-1.5133057,0-.1552124.1164551-.1552124.9702148-.1940308,1.1252441-.0388184,3.9577637-.8536377,4.4233398-1.0088501.6208496-.2328491.8149414-.4656372.8149414-1.9789429,0-.5820923.0776367-3.1430664.0776367-3.6863403,0-1.8237305,0-2.1341553-1.2416992-2.1341553-.9313965,0-2.6774902,0-3.5310059.1552124-.0776367,0-.3881836.0776062-.4658203.0776062-.1162109,0-.1938477-.1164246-.3103027-.271637l-.6208496-.8924561q-.1164551-.1940308-.1164551-.2328186c0-.0776062,0-.1164246.1164551-.1164246.1552734,0,1.0087891.1164246,1.1640625.1164246.3105469.0387878,3.4921875.1552124,3.8415527.1552124.659668,0,1.2416992-.0387878,1.2416992-1.164093,0-.2328186-.1164551-6.0921021-.1164551-6.2473145-.0388184-.2716064-.1940918-1.3969116-.1940918-1.6296997,0-.1552124,0-.3492432.2329102-.3492432.1164551,0,3.6086426.659668,3.6086426,1.3969116,0,.1552124-.6208496.7372437-.6984863.8924561-.3103027.659668-.3103027,1.2029114-.3103027,5.8980713,0,1.047699.2714844,1.2029114,1.1640625,1.2029114.2714844,0,.5432129,0,1.1640625-.7372742.9313965-1.1252747,1.0476074-1.2416992,1.3193359-1.2416992.4655762,0,2.2893066,2.1341858,2.2893066,2.4833984,0,.5044556-.3491211.5432739-1.7460938.5432739h-3.1430664Zm22.7385254-5.6264648c0,.4656372-.4267578.5044556-1.6296387.659668-1.7072754.1940002-10.0112305,1.6296997-11.9125977,1.7849121-1.0864258.0776367-1.1252441.4656372-1.1252441,1.4745483,0,2.328186,0,2.5997925.5820312,2.9102173.9313965.5432434,3.4147949.5432434,6.2861328.5432434,5.9755859,0,6.9458008-.6208496,7.7219238-2.5221863.1550293-.4268494.7758789-2.6386108.8535156-2.6386108.1552734,0,.6984863,2.6386108.8925781,3.104248.1164551.1940002.7373047,1.2804871.7373047,1.5909119,0,.9312744-1.8625488,1.9013367-3.1818848,2.2505798-1.1640625.3104248-6.1696777.5432129-7.6442871.5432129-6.751709,0-8.4589844-.6208496-8.6918945-2.5221558-.0776367-.5820618-.1164551-3.9967346-.1164551-6.0144958,0-.776062-.1938477-4.5787659-.1938477-5.4324341,0-.271637.0385742-.3104248.3103027-.3104248.5432129,0,2.2116699.271637,2.5222168.3104248.4655762.0776062,1.0476074.1552124,1.0476074.6596375,0,.1940308-.7758789.8148804-.892334.9700928-.2329102.3104248-.2329102,2.6386108-.2329102,3.2206421,0,.9312744,0,1.1641235.5432129,1.1641235,1.1252441,0,5.9758301-1.823761,8.0322266-2.87146.427002-.2327881,2.3669434-1.9013367,2.4057617-1.9401245.2717285-.0388184,3.6862793,2.5221863,3.6862793,3.0654297Zm-12.5332031,27.4725952c-1.0478516,0-1.0866699.659668-1.0866699,1.1640625-.0388184,1.1641235-1.0476074,1.7461548-2.0563965,1.7461548-.9313965,0-.9313965-.8924561-.9313965-1.2416992,0-.2716064.1164551-1.4744873.1164551-1.7073364.0776367-1.3969116.0776367-2.5609741.0776367-4.1907349,0-2.9102173,0-5.9368286-.1164551-8.8082886,0-.2327881-.0776367-1.2028809-.0776367-1.3969116,0-.2716064,0-.6208496.2329102-.6208496.3103027,0,1.5908203.7372437,1.8625488.8536987.5043945.1939697,1.0864258.2716064,1.668457.2716064h8.4204102c.232666,0,.5432129,0,.9699707-.2328491.3105469-.1552124,1.435791-1.1253052,1.7460938-1.1253052.6984863,0,2.4445801,1.552124,2.4445801,2.0178223,0,.2327881-.1550293.4655762-.5820312.8924561-.5820312.5820312-.5432129.8148193-.5432129,2.6386108,0,4.4623413.0388184,5.8980713.0388184,6.868103.0388184.3492432.1552734,3.2595215.1552734,3.4146729,0,1.4745483-1.3581543,1.9401855-1.9790039,1.9401855-.9313965,0-.9313965-.7372437-.9313965-1.2805176,0-.4656372,0-1.2028809-1.0864258-1.2028809h-8.3425293Zm8.3813477-7.7218018c.659668,0,1.1252441-.2328491,1.1252441-1.0477295,0-4.1519165-.1162109-4.1519165-1.1640625-4.1519165h-8.3813477c-.6208496,0-.9313965.2328491-1.0478516.6984863-.0388184.0775757-.0388184,3.1818237-.0388184,3.4534302,0,.6208496.2717285,1.0477295,1.0866699,1.0477295h8.420166Zm0,6.6741333c1.0864258,0,1.1640625,0,1.1640625-4.4623413,0-.7373047-.1938477-1.1641235-1.1640625-1.1641235h-8.420166c-1.0090332,0-1.0866699.6208496-1.0866699.6984253v3.8027344c0,.5044556,0,1.1253052,1.0866699,1.1253052h8.420166Z"/>
      </g>
      <g>
        <path d="m115.1362555,24.2622811c0,2.0075684.038208,2.2943115,1.1471558,2.3899536l.6118164.057312c.1146851.0765381.0764771.4206543-.038269.4780273-1.0897827-.038269-1.7398071-.057373-2.5045776-.057373s-1.43396.019104-2.6575928.057373c-.1146851-.057373-.1529541-.3823853,0-.4780273l.6882935-.057312c1.0897827-.0956421,1.1854248-.3823853,1.1854248-2.3899536v-8.5462646c0-.5927124,0-.6118164-.5736084-.6118164h-1.0515747c-.8220825,0-1.8736572.038208-2.3516235.4779663-.4588623.4205933-.6500854.8412476-.8604126,1.3192139-.1529541.1147461-.4205933.019104-.4970703-.1338501.3059082-.8603516.5927124-2.0839844.7265015-2.8487549.057373-.038208.3059082-.0573425.3632812,0,.1147461.6118164.7456665.5927124,1.6251221.5927124h7.7432861c1.0324707,0,1.2045288-.0382385,1.491333-.5353394.0955811-.0382385.3059082-.019104.3441162.057373-.2102661.7838745-.3441162,2.3325195-.2867432,2.9061279-.0764771.1529541-.4014893.1529541-.4971313.038208-.057312-.4779663-.1911621-1.1853638-.4779663-1.3956909-.4397583-.3250122-1.1662598-.4779663-2.2178345-.4779663h-1.3574829c-.5735474,0-.5544434.019104-.5544434.6500244v8.5080566Z"/>
        <path d="m120.9881842,20.9546639c0-3.8238525,2.8678589-6.7490845,6.8063965-6.7490845,4.4165649,0,6.6343994,3.1929321,6.6343994,6.5579224,0,3.8620605-2.9443359,6.6726074-6.6343994,6.6726074-4.2444458,0-6.8063965-3.039978-6.8063965-6.4814453Zm11.5288696.4014893c0-3.1546631-1.3956909-6.5578613-5.0474854-6.5578613-1.9884033,0-4.569519,1.3574219-4.569519,5.5445557,0,2.8296509,1.3765869,6.5005493,5.1431274,6.5005493,2.2943115,0,4.473877-1.7207031,4.473877-5.4872437Z"/>
        <path d="m137.7577154,17.3793465c0-2.0075073-.038208-2.3134155-1.1471558-2.4089966l-.4779663-.0382385c-.1147461-.0764771-.0764771-.4206238.038208-.4779968.9368896.038269,1.5487061.057373,2.4090576.057373.7456055,0,1.3956909-.019104,2.2178345-.057373.1146851.057373.1529541.4015198.038208.4779968l-.3632202.0382385c-1.1089478.1147156-1.1472168.4014893-1.1472168,2.4089966v2.1987305c0,.3632812.038269.7265625.2485962.7265625.1720581,0,.4014893-.1147461.5353394-.2103271.2676392-.2294312.7647705-.7265625.9750977-.9177246l2.0648193-2.0457764c.3632812-.3441162,1.3001709-1.3192139,1.491333-1.5868835.0955811-.1338196.1338501-.2294312.1338501-.3059082s-.0764771-.1338196-.3250122-.1911926l-.5162354-.1147156c-.1338501-.1338196-.1147461-.3823853.038208-.4779968.6691895.038269,1.43396.057373,2.1031494.057373s1.3192139-.019104,1.8928223-.057373c.1337891.0956116.1529541.3632812.038208.4779968-.4970703.0382385-1.2427368.2294312-1.7780762.5353394-.5353394.3059387-1.6060181,1.2044983-2.6766968,2.217804l-1.7207642,1.6251831c-.2676392.2676392-.4396973.4397583-.4396973.5927124,0,.1337891.1146851.2867432.3632202.5926514,1.8163452,2.0839844,3.2885132,3.8047485,4.7798462,5.3725586.4588623.4588623.8794556.7073975,1.529541.7838745l.5162354.057312c.1337891.0956421.0955811.4206543-.038269.4780273-.4971313-.038269-1.2427368-.057373-2.1413574-.057373-.7838745,0-1.453064.019104-2.3325806.057373-.1337891-.038269-.1911621-.3632812-.076416-.4780273l.4396973-.076416c.2677002-.038269.4588623-.0956421.4588623-.1912231,0-.1146851-.1337891-.2676392-.2676392-.4397583-.3632812-.4588623-.8604126-.9750977-1.5869141-1.7971802l-1.529541-1.7207642c-1.0897827-1.2236328-1.3956909-1.6060181-1.8545532-1.6060181-.2868042,0-.3250732.2485962-.3250732.9177246v2.4663696c0,2.0075684.038269,2.2752075,1.1089478,2.3899536l.5162354.057312c.1146851.0765381.0764771.4206543-.038269.4780273-.9368286-.038269-1.5869141-.057373-2.3325195-.057373-.7839355,0-1.43396.019104-2.2178345.057373-.1147461-.057373-.1529541-.3441772-.038269-.4780273l.3823853-.057312c1.0133667-.1529541,1.0515747-.3823853,1.0515747-2.3899536v-6.8829346Z"/>
        <path d="m148.4085944,20.9546639c0-3.8238525,2.8678589-6.7490845,6.8063965-6.7490845,4.4165649,0,6.6343994,3.1929321,6.6343994,6.5579224,0,3.8620605-2.9443359,6.6726074-6.6343994,6.6726074-4.2444458,0-6.8063965-3.039978-6.8063965-6.4814453Zm11.5288696.4014893c0-3.1546631-1.3956909-6.5578613-5.0474854-6.5578613-1.9884033,0-4.569519,1.3574219-4.569519,5.5445557,0,2.8296509,1.3765869,6.5005493,5.1431274,6.5005493,2.2943115,0,4.473877-1.7207031,4.473877-5.4872437Z"/>
        <path d="m165.1781256,17.3985115c0-1.8163452-.057373-2.1413574-.8412476-2.236969l-.6118164-.0764771c-.1338501-.0956116-.1338501-.4015198.019104-.4779968,1.0706787-.0955811,2.3898926-.1529541,4.2636108-.1529541,1.1853638,0,2.3134155.0956116,3.1929321.5736084.9177246.4779663,1.5869141,1.3383179,1.5869141,2.6766968,0,1.8162842-1.43396,2.8105469-2.3899536,3.1928711-.0955811.1147461,0,.3059082.0956421.4588623,1.529541,2.4664307,2.5428467,3.9959717,3.8429565,5.0857544.3250122.2868042.8029785.4971313,1.3192139.5353394.0955811.038208.1146851.1911621.019104.2677002-.1720581.057312-.4779663.0955811-.8412476.0955811-1.6251221,0-2.6002197-.4780273-3.9577026-2.4090576-.4970703-.7073975-1.2809448-2.0266113-1.8736572-2.8869629-.2868042-.4206543-.5927124-.6118164-1.3574829-.6118164-.8603516,0-.8986206.019104-.8986206.4205933v2.4089966c0,2.0075684.038269,2.2369995,1.1472168,2.3899536l.4014893.057312c.1146851.0956421.0764771.4206543-.038269.4780273-.8603516-.038269-1.510437-.057373-2.2752075-.057373-.8029785,0-1.491272.019104-2.3898926.057373-.1146851-.057373-.1529541-.3441772-.038208-.4780273l.4779663-.057312c1.1089478-.1338501,1.1471558-.3823853,1.1471558-2.3899536v-6.8637695Zm1.567749,2.7340088c0,.3441772,0,.5545044.057373.6309814.057373.057373.3441772.0955811,1.3192139.0955811.6883545,0,1.414856-.0764771,1.9692993-.4970703.5162354-.4015503.9559937-1.0706787.9559937-2.3708496,0-1.510376-.9368896-2.9443359-3.059082-2.9443359-1.1854248,0-1.2427979.0764771-1.2427979.6118164v4.473877Z"/>
        <path d="m175.2553961,20.9546639c0-3.8238525,2.8678589-6.7490845,6.8063965-6.7490845,4.4165649,0,6.6343994,3.1929321,6.6343994,6.5579224,0,3.8620605-2.9443359,6.6726074-6.6343994,6.6726074-4.2444458,0-6.8063965-3.039978-6.8063965-6.4814453Zm11.5288696.4014893c0-3.1546631-1.3956909-6.5578613-5.0474854-6.5578613-1.9884033,0-4.569519,1.3574219-4.569519,5.5445557,0,2.8296509,1.3765869,6.5005493,5.1431274,6.5005493,2.2943115,0,4.473877-1.7207031,4.473877-5.4872437Z"/>
        <path d="m196.3076422,18.4882942c.9942017-1.414856,1.548645-2.1413574,1.8545532-2.7149048.1338501-.2294617.2294312-.3824158.2294312-.5162354,0-.0956116-.1911621-.1529541-.6882935-.1529541h-2.8487549c-1.529541,0-2.3898926.1338196-2.8487549.6309204-.4015503.4397583-.6882935.9750977-.8412476,1.3001099-.1721191.0764771-.4014893.019104-.4780273-.1338501.2294922-.6691284.5545044-1.8163147.7839355-2.8678589.0764771-.057373.2294312-.057373.3250122,0,.057373.4588623.3441772.4779663,1.8928223.4779663h5.0474854c1.3765869,0,1.9884033-.019104,2.1986694-.057373.0765381.0191345.1147461.0956116.1147461.1720886-.5162354.4397278-2.1413574,2.6575623-3.1355591,4.0915222l-3.1546631,4.550415c-.2103271.3059082-1.8928223,2.6766357-1.8928223,2.9634399,0,.1912231.1912231.2294312.5353394.2677002.4970703.038208,1.491333.038208,2.8296509.038208,1.2236328,0,2.8105469-.038208,3.5370483-.4397583.5544434-.3059082,1.0133057-1.0133057,1.3383789-1.7589111.1720581-.057373.4205933-.038269.4779663.1337891-.1720581.8795166-.5544434,2.2369385-.8603516,2.7149658-1.0515747-.038269-2.1413574-.057373-3.4797363-.057373h-4.9136353c-1.0133057,0-1.7015991.038208-2.1413574.057373-.0764771-.038269-.0955811-.1338501-.0955811-.2294312.4014893-.3823853,1.491272-1.7398682,2.0839844-2.6002197l4.1297607-5.8696289Z"/>
        <path d="m209.845484,22.694532c-.1338501-.4206543-.2103271-.4779663-.7839355-.4779663h-2.8869629c-.4780273,0-.5927124.057312-.7265625.4588623l-.6691895,2.0075073c-.2867432.8603516-.4205933,1.3765869-.4205933,1.5869141,0,.2294312.0955811.3441162.5544434.3823853l.6309204.057312c.1338501.0956421.1338501.4015503-.038208.4780273-.4970703-.038269-1.0897827-.038269-1.9884033-.057373-.6309204,0-1.3192139.038208-1.8354492.057373-.1147461-.0764771-.1529541-.3823853-.038208-.4780273l.6309204-.057312c.4588623-.038269.8794556-.2485962,1.1471558-.9368286.3441162-.8795166.8794556-2.1222534,1.6824951-4.2636108l1.9501343-5.1622314c.2677002-.6882935.3823853-1.0515442.3250122-1.3574524.4588623-.1338196.7839355-.4779968.9942627-.726532.1146851,0,.2485352.0382385.2867432.1720581.2485352.8412476.5544434,1.7207642.8412476,2.5620117l2.6193237,7.6859131c.5545044,1.6442871.8030396,1.9310303,1.6251831,2.0266724l.5161743.057312c.1338501.0956421.0956421.4015503,0,.4780273-.7838745-.038269-1.4530029-.057373-2.3134155-.057373-.9177246,0-1.6442261.038208-2.1986694.057373-.1529541-.0764771-.1721191-.3823853-.038269-.4780273l.5544434-.057312c.4015503-.038269.6691895-.1529541.6691895-.3441772,0-.2103271-.0955811-.5544434-.2485352-1.0133057l-.8412476-2.6002197Zm-3.7856445-1.7015991c-.1529541.4397583-.1337891.4588623.4014893.4588623h2.3516846c.5544434,0,.5927124-.0764771.4206543-.5927124l-1.0324707-3.1164551c-.1529541-.4588623-.3250122-.9750977-.4396973-1.2044678h-.038269c-.057373.0955811-.2485352.5544434-.4588623,1.1279907l-1.2045288,3.3267822Z"/>
        <path d="m212.0071661,14.9129769c-.1146851-.1146851-.0955811-.3823853.057373-.4588623.5162354.038269,1.3765869.057373,1.9692993.057373.5353394,0,1.510376-.019104,2.1795654-.057373.1721191.057373.1529541.3250427.038269.4588623l-.4397583.038269c-.4014893.038208-.6309204.1529541-.6309204.3250122,0,.2294312.4014893,1.2045288.9942017,2.5619507,1.0706787,2.3899536,2.1987305,4.7798462,3.3076172,7.1315308.4588623-.9559937.9750977-2.0266724,1.472168-3.0973511.1721191-.3632812.3059082-.6882935.3059082-.7838745s-.057373-.2676392-.1529541-.4971313c-.6691895-1.529541-1.3765869-3.059082-2.1030884-4.588623-.2868042-.5926514-.5736084-.9941711-1.2236328-1.0515137l-.4588623-.038269c-.1338501-.1529541-.1147461-.3823853.038208-.4588623.5545044.038269,1.2810059.057373,2.0457764.057373.9559937,0,1.6633911-.019104,2.1030884-.057373.1338501.057373.1529541.3059082.038269.4588623l-.4971313.038269c-.7456055.0573425-.7647705.1911621-.4014893,1.0515137.4014893.9368896.9368896,2.1413574,1.472168,3.3267822.3632812-.7456665.7074585-1.472168,1.1280518-2.5046387.6882935-1.6251221.5927124-1.8354492-.019104-1.8736572l-.5735474-.038269c-.1338501-.1911621-.0956421-.4014893.038208-.4588623.5162354.038269,1.0897827.057373,1.7972412.057373.6309204,0,1.3956909-.019104,1.8354492-.057373.1337891.057373.1529541.3059082.038208.4588623l-.5544434.038269c-.8030396.0573425-1.1471558.9177246-1.5678101,1.7015991-.4014893.7073975-1.2045288,2.3707886-1.491272,3.039978-.0955811.1911621-.1721191.3823853-.1721191.4588623s.038269.2294312.1338501.4588623c.6500854,1.472168,1.3192749,2.9061279,1.9501953,4.3591919.5927124-1.3383789,1.1662598-2.6766968,1.7207031-4.0341797.3823853-.9177246,1.3956909-3.4605713,1.529541-3.8047485.2485962-.6882935.5736084-1.5104065.5736084-1.7398376,0-.2676697-.2294312-.4206238-.6309204-.4397278l-.5545044-.038269c-.1529541-.1720581-.1338501-.3823853.019104-.4588623.7265625.038269,1.2427979.057373,1.8354492.057373.7265625,0,1.2810059-.019104,1.7781372-.057373.1529541.057373.1720581.3059082.038208.4588623l-.3632202.038269c-.9559937.0955811-1.1280518.6691589-2.2752075,3.3267212l-1.3956909,3.2311401c-.8413086,1.9501953-1.6060791,3.8238525-2.3899536,5.8696289-.057312.038269-.1338501.057373-.2294312.057373s-.1911621-.019104-.2676392-.057373c-.6118164-1.7015991-1.7207642-4.0914917-2.3134155-5.4298706-.6883545,1.3956909-1.8354492,3.8429565-2.3899536,5.4298706-.057312.038269-.1338501.057373-.2294312.057373s-.1911621-.019104-.2867432-.057373c-.3250732-.8029785-1.0706787-2.5237427-1.3192749-3.078186-1.2236328-2.6575928-2.4089966-5.3151245-3.6517944-7.9727173-.3632202-.783905-.5926514-1.3001099-1.3956909-1.3765869l-.4588623-.038269Z"/>
        <path d="m236.7687018,22.694532c-.1338501-.4206543-.2103271-.4779663-.7839355-.4779663h-2.8869629c-.4780273,0-.5927124.057312-.7265625.4588623l-.6691895,2.0075073c-.2867432.8603516-.4205933,1.3765869-.4205933,1.5869141,0,.2294312.0955811.3441162.5544434.3823853l.6309204.057312c.1338501.0956421.1338501.4015503-.038208.4780273-.4970703-.038269-1.0897827-.038269-1.9884033-.057373-.6309204,0-1.3192139.038208-1.8354492.057373-.1147461-.0764771-.1529541-.3823853-.038208-.4780273l.6309204-.057312c.4588623-.038269.8794556-.2485962,1.1471558-.9368286.3441162-.8795166.8794556-2.1222534,1.6824951-4.2636108l1.9501343-5.1622314c.2677002-.6882935.3823853-1.0515442.3250122-1.3574524.4588623-.1338196.7839355-.4779968.9942627-.726532.1146851,0,.2485352.0382385.2867432.1720581.2485352.8412476.5544434,1.7207642.8412476,2.5620117l2.6193237,7.6859131c.5545044,1.6442871.8030396,1.9310303,1.6251831,2.0266724l.5161743.057312c.1338501.0956421.0956421.4015503,0,.4780273-.7838745-.038269-1.4530029-.057373-2.3134155-.057373-.9177246,0-1.6442261.038208-2.1986694.057373-.1529541-.0764771-.1721191-.3823853-.038269-.4780273l.5544434-.057312c.4015503-.038269.6691895-.1529541.6691895-.3441772,0-.2103271-.0955811-.5544434-.2485352-1.0133057l-.8412476-2.6002197Zm-3.7856445-1.7015991c-.1529541.4397583-.1337891.4588623.4014893.4588623h2.3516846c.5544434,0,.5927124-.0764771.4206543-.5927124l-1.0324707-3.1164551c-.1529541-.4588623-.3250122-.9750977-.4396973-1.2044678h-.038269c-.057373.0955811-.2485352.5544434-.4588623,1.1279907l-1.2045288,3.3267822Z"/>
      </g>
    </g>
  </g>
</svg>