<?xml version="1.0" encoding="UTF-8"?>
<svg id="_レイヤー_2" data-name="レイヤー 2" xmlns="http://www.w3.org/2000/svg" viewBox="0 0 27.7578509 132.0507812">
  <defs>
    <style>
      .cls-1 {
        fill: #6d0000;
      }

      .cls-2 {
        fill: none;
        stroke: #6d0000;
        stroke-miterlimit: 10;
      }
    </style>
  </defs>
  <g id="_レイヤー_2-2" data-name="レイヤー 2">
    <g>
      <path class="cls-1" d="m3.6266064,4.6806641v-1.8857422c-.4160156.4814453-.8710938.9238281-1.3134766,1.2871094-.15625-.1679688-.4550781-.4160156-.6494141-.5449219,1.0654297-.8066406,2.1572266-2.1582031,2.8076172-3.5371094l1.0273438.3642578c-.0390625.078125-.1298828.1298828-.2861328.1044922-.1826172.3632812-.4033203.7275391-.6367188,1.078125h8.4501953v.7929688h-1.3916016v2.3408203h1.8984375v.7929688h-1.8984375v2.3662109h1.703125v.7929688H1.9752392v-.7929688h1.6513672v-2.3662109h-1.8466797v-.7929688h1.8466797Zm.5458984,4.7841797c-.3378906.9746094-.9492188,2.015625-1.6767578,2.6386719l-.8066406-.3505859c.7021484-.5458984,1.3261719-1.5478516,1.6640625-2.5087891l.8193359.2207031Zm.2597656-7.125v2.3408203h1.5605469v-2.3408203h-1.5605469Zm0,3.1337891v2.3662109h1.5605469v-2.3662109h-1.5605469Zm1.4824219,6.5009766c-.0136719-.6113281-.1171875-1.6259766-.2734375-2.40625l.7929688-.078125c.1826172.7675781.3251953,1.7685547.3378906,2.3535156l-.8574219.1308594Zm2.4697266-9.6347656h-1.625v2.3408203h1.625v-2.3408203Zm0,3.1337891h-1.625v2.3662109h1.625v-2.3662109Zm.7675781,6.5126953c-.1171875-.6230469-.46875-1.6503906-.8193359-2.4179688l.8193359-.15625c.3632812.7548828.7275391,1.7685547.8574219,2.3798828l-.8574219.1943359Zm1.6640625-7.3056641v-2.3408203h-1.6640625v2.3408203h1.6640625Zm0,3.1591797v-2.3662109h-1.6640625v2.3662109h1.6640625Zm1.9882812,4.2773438c-.3242188-.7021484-1.0917969-1.8339844-1.7548828-2.6386719l.8056641-.2871094c.6767578.7929688,1.4570312,1.8847656,1.8076172,2.6005859l-.8583984.3251953Z"/>
      <path class="cls-1" d="m17.6041454,5.4082031v.6367188c.4541016.3652344,1.8330078,1.6777344,2.1445312,2.0029297l-.5332031.7148438c-.2724609-.4033203-1.0400391-1.2480469-1.6113281-1.8330078v5.1484375h-.8457031v-5.3300781c-.5849609,1.3652344-1.3652344,2.7558594-2.1054688,3.5742188-.0917969-.2460938-.3125-.6230469-.46875-.8320312.8710938-.9101562,1.859375-2.5859375,2.3925781-4.0820312h-2.2236328v-.8320312h2.4052734V.0136719l1.0927734.078125c-.0136719.0908203-.078125.1425781-.2470703.1679688v4.3164062h2.3007812v.8320312h-2.3007812ZM15.1598095.9238281c.4287109.8837891.8056641,2.0410156.9228516,2.7949219l-.7412109.2080078c-.1171875-.7548828-.4677734-1.9248047-.8710938-2.8076172l.6894531-.1953125Zm4.9267578.2724609c-.0390625.078125-.1298828.1298828-.2597656.1298828-.2988281.7929688-.8056641,1.9765625-1.2089844,2.7050781-.1435547-.0527344-.4814453-.2089844-.6113281-.2480469.3769531-.7666016.8583984-2.0410156,1.0927734-2.9248047l.9873047.3378906Zm6.2919922,7.0722656l-1.7802734.3115234v3.5107422h-.8583984v-3.3544922l-3.7832031.6757812-.15625-.8183594,3.9394531-.6894531V.0390625l1.1181641.078125c-.0126953.0917969-.078125.15625-.2597656.1816406v7.4492188l1.6376953-.2851562.1425781.8056641Zm-5.4599609-3.8876953c.8193359.5332031,1.7685547,1.3398438,2.2236328,1.9121094-.5205078.4160156-.5722656.4804688-.6376953.5458984-.4414062-.5722656-1.3779297-1.4042969-2.1962891-1.9638672l.6103516-.4941406Zm.3378906-3.4570312c.7548828.5449219,1.6123047,1.3388672,2.0029297,1.8984375l-.6503906.5195312c-.3769531-.5722656-1.2226562-1.390625-1.9765625-1.9501953l.6240234-.4677734Z"/>
    </g>
    <line class="cls-2" y1="20.0665832" x2="27.7578509" y2="20.0665832"/>
    <g>
      <path class="cls-1" d="m4.2623486,35.3398438c1.5322266-.3984375,3.7587891-1.0498047,5.9833984-1.6796875l.1679688,1.1337891c-1.9316406.6298828-3.9472656,1.2802734-5.2275391,1.6591797-.0205078.1679688-.1259766.2724609-.2519531.3359375l-.671875-1.4492188Zm7.9580078,11.0439453c-.0839844.1044922-.2519531.1679688-.4628906.1259766-1.6796875.8398438-4.2402344,1.7216797-6.3193359,2.2460938-.2519531-.2724609-.6923828-.7763672-.9658203-1.0283203,2.0576172-.4404297,4.6816406-1.2392578,6.2363281-2.0996094l1.5117188.7558594Zm-6.2363281-16.6708984c1.4902344.3984375,3.4433594,1.1132812,4.4726562,1.6582031l-.6308594,1.1132812c-1.0078125-.5664062-2.9599609-1.34375-4.4716797-1.8056641l.6298828-.9658203Zm1.1337891,15.6210938v-8.6083984h13.7939453v8.6083984H7.1178173Zm1.3642578-7.6005859v1.5322266h11.0234375v-1.5322266h-11.0234375Zm0,2.4990234v1.5527344h11.0234375v-1.5527344h-11.0234375Zm0,2.5195312v1.5957031h11.0234375v-1.5957031h-11.0234375Zm8.9658203-10.8554688c.5039062,1.7216797,1.7216797,3.3173828,6.1103516,3.9892578-.2734375.2724609-.609375.7978516-.7558594,1.1552734-3.6953125-.6513672-5.25-2.0996094-6.0263672-3.6953125-.7558594,1.5957031-2.2675781,2.6660156-5.5224609,3.3164062-.1044922-.2929688-.4199219-.7763672-.6503906-1.0078125,3.5058594-.6289062,4.8291016-1.7421875,5.3330078-3.7578125h-2.4150391c-.5244141.6503906-1.1757812,1.28125-1.9316406,1.8691406-.2519531-.2734375-.734375-.5673828-1.0703125-.7148438,1.6171875-1.1123047,2.6875-2.5820312,3.2539062-3.8632812l1.5751953.2314453c-.0205078.1474609-.1474609.2314453-.3994141.2519531-.1679688.3564453-.3769531.7353516-.6289062,1.1123047h7.6425781l.2519531-.0205078.8398438.1044922c-.2734375.7988281-1.4707031,2.4785156-2.2050781,3.1708984l-1.1337891-.4199219c.4619141-.4404297.9443359-1.0917969,1.3642578-1.7216797h-3.6318359Zm4.3671875,16.859375c-1.3642578-.6923828-3.6748047-1.5742188-6.046875-2.3300781l1.1552734-.734375c2.3300781.7128906,4.8916016,1.6162109,6.4453125,2.3085938l-1.5537109.7558594Z"/>
      <path class="cls-1" d="m9.5328564,65.6933594v1.0292969c.734375.5878906,2.9599609,2.7080078,3.4638672,3.2324219l-.8603516,1.1552734c-.4414062-.6513672-1.6796875-2.015625-2.6035156-2.9599609v8.3144531h-1.3652344v-8.609375c-.9453125,2.2050781-2.2050781,4.4511719-3.4013672,5.7744141-.1474609-.3994141-.5039062-1.0078125-.7558594-1.34375,1.4072266-1.4697266,3.0029297-4.1787109,3.8632812-6.5927734h-3.5908203v-1.34375h3.8847656v-7.3691406l1.7636719.125c-.0214844.1474609-.1259766.2314453-.3984375.2734375v6.9707031h3.7158203v1.34375h-3.7158203Zm-3.9472656-7.2441406c.6923828,1.4277344,1.3007812,3.296875,1.4902344,4.5146484l-1.1972656.3359375c-.1884766-1.2177734-.7558594-3.1074219-1.40625-4.5351562l1.1132812-.3154297Zm7.9570312.4414062c-.0625.1259766-.2099609.2099609-.4199219.2099609-.4824219,1.2802734-1.3017578,3.1914062-1.953125,4.3671875-.2304688-.0839844-.7763672-.3359375-.9863281-.3994141.609375-1.2382812,1.3857422-3.2958984,1.7636719-4.7236328l1.5957031.5458984Zm10.1621094,11.421875l-2.8769531.5039062v5.6689453h-1.3847656v-5.4169922l-6.1103516,1.0917969-.2519531-1.3222656,6.3623047-1.1132812v-12.703125l1.8046875.1269531c-.0205078.1464844-.125.2519531-.4199219.2929688v12.03125l2.6464844-.4619141.2304688,1.3017578Zm-8.8183594-6.2773438c1.3222656.8603516,2.8554688,2.1621094,3.5898438,3.0859375-.8398438.671875-.9238281.7773438-1.0283203.8818359-.7138672-.9238281-2.2255859-2.2675781-3.5478516-3.1708984l.9863281-.796875Zm.5458984-5.5859375c1.2177734.8828125,2.6035156,2.1630859,3.2333984,3.0664062l-1.0498047.8398438c-.6083984-.9238281-1.9736328-2.2470703-3.1914062-3.1503906l1.0078125-.7558594Z"/>
      <path class="cls-1" d="m11.9684032,88.2890625v1.1757812h-7.8740234v-1.1757812h7.8740234Zm-.671875,8.5664062v6.1738281h-4.9980469v.9863281h-1.2382812v-7.1601562h6.2363281Zm-.0429688-5.7109375v1.1552734h-6.171875v-1.1552734h6.171875Zm-6.171875,4.0107422v-1.1552734h6.171875v1.1552734h-6.171875Zm6.109375-9.6582031v1.1552734h-6.0253906v-1.1552734h6.0253906Zm-1.1542969,12.5556641h-3.7382812v3.7792969h3.7382812v-3.7792969Zm8.4189453-6.1728516h5.1865234v1.1757812h-11.9257812v-1.1757812h5.3320312v-1.6376953h-3.9882812v-1.1132812h3.9882812v-1.5117188h-4.4716797v-1.1328125h4.4716797v-1.7636719l1.8271484.1044922c-.0205078.1474609-.1474609.2519531-.4199219.2939453v1.3652344h4.703125v1.1328125h-4.703125v1.5117188h4.3251953v1.1132812h-4.3251953v1.6376953Zm3.7587891,2.4355469v8.5029297c0,1.4912109-.8193359,1.4912109-3.5488281,1.4912109-.0625-.3564453-.2519531-.8398438-.4199219-1.1757812.609375.0205078,1.1757812.0419922,1.5957031.0419922.8818359,0,1.0078125-.0214844,1.0078125-.3574219v-1.9941406h-5.9003906v3.4433594h-1.34375v-9.9521484h8.609375Zm-1.3652344,1.1552734h-5.9003906v1.5742188h5.9003906v-1.5742188Zm-5.9003906,4.2617188h5.9003906v-1.5957031h-5.9003906v1.5957031Z"/>
      <path class="cls-1" d="m4.073872,128.6494141c1.8046875-.9033203,4.5976562-2.4775391,7.2011719-3.9677734l.4414062,1.2597656c-2.3105469,1.40625-4.8085938,2.8759766-6.4257812,3.7792969,0,.1679688-.0625.3359375-.1884766.4199219l-1.0283203-1.4912109Zm10.4980469-10.8759766c.5878906,1.7851562,1.3847656,3.5058594,2.3515625,5.0605469,1.3847656-1.2392578,3.0644531-3.0029297,4.0722656-4.3466797l1.4277344,1.0712891c-.1044922.125-.2929688.1464844-.4609375.1044922-1.0917969,1.2802734-2.8984375,3.0439453-4.3466797,4.2197266,1.6591797,2.3515625,3.7587891,4.2626953,6.1943359,5.3125-.3359375.2734375-.7988281.8183594-1.0292969,1.2177734-3.5898438-1.7431641-6.3613281-5.2070312-8.2089844-9.3642578v8.9648438c0,1.9316406-.9238281,2.0371094-4.7871094,2.0371094-.0839844-.4199219-.2949219-1.0703125-.5253906-1.4902344.6298828.0205078,1.2382812.0205078,1.7851562.0205078q2.078125,0,2.078125-.5673828v-12.4921875H4.6402782v-1.3857422h8.4824219v-3.5908203l1.8476562.1269531c-.0214844.1464844-.1259766.2519531-.3984375.2929688v3.1708984h8.6289062v1.3857422h-8.6289062v.2519531Zm-7.6425781,1.1132812c1.3222656,1.1328125,2.8554688,2.7714844,3.5273438,3.9042969l-1.1347656.8193359c-.6503906-1.1337891-2.140625-2.8349609-3.4638672-4.0107422l1.0712891-.7128906Zm10.6230469-6.2783203c1.3232422.6923828,3.0449219,1.7001953,3.9472656,2.4150391l-.9023438,1.0283203c-.8398438-.7353516-2.5410156-1.8271484-3.9052734-2.5615234l.8603516-.8818359Z"/>
    </g>
  </g>
</svg>