<?xml version="1.0" encoding="UTF-8"?>
<svg id="_レイヤー_2" data-name="レイヤー 2" xmlns="http://www.w3.org/2000/svg" viewBox="0 0 27.7578509 131.2939453">
  <defs>
    <style>
      .cls-1 {
        fill: #fff;
      }

      .cls-2 {
        fill: none;
        stroke: #fff;
        stroke-miterlimit: 10;
      }
    </style>
  </defs>
  <g id="_レイヤー_2-2" data-name="レイヤー 2">
    <g>
      <g>
        <path class="cls-1" d="m3.6259958,4.6796875v-1.8847656c-.4160156.4804688-.8710938.9238281-1.3125,1.2871094-.15625-.1689453-.4550781-.4160156-.6503906-.5458984,1.0664062-.8056641,2.1582031-2.1582031,2.8085938-3.5361328l1.0273438.3632812c-.0390625.078125-.1308594.1308594-.2871094.1044922-.1816406.3642578-.4023438.7275391-.6367188,1.0791016h8.4511719v.7929688h-1.3925781v2.3398438h1.8984375v.7929688h-1.8984375v2.3671875h1.703125v.7929688H1.9756051v-.7929688h1.6503906v-2.3671875h-1.8457031v-.7929688h1.8457031Zm.546875,4.7851562c-.3378906.9746094-.9492188,2.0146484-1.6777344,2.6386719l-.8066406-.3515625c.703125-.5449219,1.3261719-1.546875,1.6640625-2.5087891l.8203125.2216797Zm.2597656-7.125v2.3398438h1.5605469v-2.3398438h-1.5605469Zm0,3.1328125v2.3671875h1.5605469v-2.3671875h-1.5605469Zm1.4824219,6.5009766c-.0136719-.6113281-.1171875-1.6259766-.2734375-2.4052734l.7929688-.078125c.1816406.7675781.3242188,1.7675781.3378906,2.3535156l-.8574219.1298828Zm2.46875-9.6337891h-1.625v2.3398438h1.625v-2.3398438Zm0,3.1328125h-1.625v2.3671875h1.625v-2.3671875Zm.7675781,6.5136719c-.1171875-.6240234-.46875-1.6503906-.8183594-2.4179688l.8183594-.15625c.3632812.7539062.7285156,1.7675781.8574219,2.3789062l-.8574219.1953125Zm1.6640625-7.3066406v-2.3398438h-1.6640625v2.3398438h1.6640625Zm0,3.1601562v-2.3671875h-1.6640625v2.3671875h1.6640625Zm1.9882812,4.2763672c-.3242188-.7021484-1.0917969-1.8330078-1.7539062-2.6386719l.8046875-.2861328c.6777344.7929688,1.4570312,1.8847656,1.8085938,2.5996094l-.859375.3251953Z"/>
        <path class="cls-1" d="m17.6045114,5.4082031v.6367188c.453125.3642578,1.8320312,1.6777344,2.1445312,2.0019531l-.5332031.7148438c-.2734375-.4023438-1.0410156-1.2480469-1.6113281-1.8320312v5.1474609h-.8457031v-5.3300781c-.5859375,1.3652344-1.3652344,2.7568359-2.1054688,3.5751953-.0917969-.2470703-.3125-.6240234-.46875-.8320312.8710938-.9101562,1.859375-2.5869141,2.3925781-4.0820312h-2.2246094v-.8320312h2.40625V.0126953l1.0917969.078125c-.0136719.0908203-.078125.1435547-.2460938.1689453v4.3164062h2.3007812v.8320312h-2.3007812ZM15.1591989.9228516c.4296875.8837891.8066406,2.0410156.9238281,2.7958984l-.7421875.2070312c-.1171875-.7539062-.4667969-1.9238281-.8710938-2.8076172l.6894531-.1953125Zm4.9277344.2724609c-.0390625.078125-.1308594.1308594-.2597656.1308594-.2988281.7929688-.8066406,1.9765625-1.2089844,2.7041016-.1445312-.0517578-.4824219-.2080078-.6113281-.2470703.3769531-.7675781.8574219-2.0410156,1.0917969-2.9257812l.9882812.3378906Zm6.2910156,7.0722656l-1.7792969.3125v3.5097656h-.859375v-3.3535156l-3.7832031.6757812-.15625-.8183594,3.9394531-.6894531V.0390625l1.1191406.078125c-.0136719.0908203-.078125.15625-.2597656.1816406v7.4492188l1.6367188-.2851562.1425781.8046875Zm-5.4589844-3.8867188c.8183594.5332031,1.7675781,1.3398438,2.2226562,1.9111328-.5195312.4160156-.5722656.4814453-.6367188.5458984-.4414062-.5722656-1.3789062-1.4042969-2.1972656-1.9628906l.6113281-.4941406Zm.3378906-3.4580078c.7539062.5458984,1.6113281,1.3388672,2.0019531,1.8984375l-.6503906.5195312c-.3769531-.5712891-1.2226562-1.390625-1.9765625-1.9501953l.625-.4677734Z"/>
      </g>
      <line class="cls-2" y1="20.0655638" x2="27.7578509" y2="20.0655638"/>
      <g>
        <path class="cls-1" d="m12.0927926,42.1259766c-.0195312.1474609-.1875.2519531-.4394531.2724609-.5683594,3.0029297-1.7851562,5.0390625-6.7402344,6.046875-.1269531-.3359375-.4824219-.9443359-.7773438-1.2382812,4.5351562-.8183594,5.6699219-2.4570312,6.0898438-5.2695312l1.8671875.1884766Zm4.6621094,4.0517578c0,.609375.1679688.7353516,1.1328125.7353516h3.3398438c.8808594,0,1.0488281-.3994141,1.1328125-3.0439453.3144531.2519531.9238281.4824219,1.3027344.5878906-.1679688,3.0439453-.5683594,3.7998047-2.3320312,3.7998047h-3.5683594c-1.9316406,0-2.4355469-.4404297-2.4355469-2.0791016v-4.828125H7.2216989v-11.6953125h13.375v11.6953125h-3.8417969v4.828125Zm-8.1679688-15.2851562v2.2890625h10.5820312v-2.2890625h-10.5820312Zm0,3.4433594v2.3105469h10.5820312v-2.3105469h-10.5820312Zm0,3.4648438v2.3515625h10.5820312v-2.3515625h-10.5820312Z"/>
        <path class="cls-1" d="m23.3056833,69.0976562v1.3232422h-8.7128906v4.0732422c0,1.7636719-1.0078125,1.7851562-4.8925781,1.7851562-.1054688-.3994141-.3789062-.9873047-.609375-1.3867188,1.0703125.0429688,2.015625.0634766,2.6875.0634766,1.21875,0,1.3652344,0,1.3652344-.4619141v-4.0732422H4.5341989v-1.3232422h8.609375v-1.8261719l.9863281.0625c1.0703125-.5449219,2.1835938-1.2802734,3.0449219-1.9941406h-9.1328125v-1.2597656h10.6230469l.2519531-.0839844,1.0917969.6933594c-.0625.1044922-.1894531.1679688-.3144531.1884766-1.2382812,1.1757812-3.234375,2.5400391-5.1015625,3.4638672v.7558594h8.7128906Zm-16.9023438-7.5371094v3.3808594h-1.34375v-4.6621094h3.2753906c-.3984375-.8183594-1.1757812-1.9316406-1.8691406-2.75l1.1757812-.5664062c.8398438.9238281,1.7441406,2.1621094,2.1210938,3.0019531l-.609375.3144531h4.4511719c-.3144531-.9443359-1.0078125-2.2460938-1.6582031-3.2119141l1.21875-.4619141c.7558594,1.0498047,1.5117188,2.4570312,1.7832031,3.359375l-.734375.3144531h3.6738281c.8203125-.9648438,1.8476562-2.4355469,2.4160156-3.4433594,1.3222656.4833984,1.4902344.5878906,1.6582031.6933594-.0625.1259766-.2304688.1894531-.4414062.1679688-.5253906.7558594-1.28125,1.7421875-2.015625,2.5820312h3.421875v4.6621094h-1.3847656v-3.3808594H6.4033395Z"/>
        <path class="cls-1" d="m22.5068551,91.9765625l1.0507812.2519531c-.0625.2304688-2.6464844,3.7363281-5.0390625,5.6894531l-1.1542969-.734375c1.1757812-.9453125,2.5605469-2.4355469,3.6523438-3.8427734h-6.0878906c-.0429688.1259766-.1484375.1884766-.4199219.2314453v8.2089844c0,.9023438-.2324219,1.3222656-.9453125,1.5537109-.7148438.2099609-1.953125.2099609-3.8222656.2099609-.0839844-.3984375-.3359375-.9658203-.5449219-1.3652344.9023438.0214844,1.7421875.0429688,2.3925781.0429688,1.3652344,0,1.4707031,0,1.4707031-.4628906v-8.4189453H4.3877145v-1.34375h11.296875c-1.7636719-1.1123047-4.3671875-2.3515625-6.5507812-3.1279297l.9648438-1.0292969c1.3027344.4414062,2.7714844,1.0498047,4.1367188,1.7011719,1.40625-.7988281,2.9609375-1.9111328,4.1152344-2.9394531H6.3818551v-1.3232422h12.9980469c.3984375,0,.4394531,0,.734375-.0839844l1.2597656.8398438c-.0839844.0839844-.2304688.1474609-.3789062.1679688-1.3632812,1.3232422-3.4433594,2.8974609-5.3535156,4.0517578.8183594.4414062,1.5546875.8828125,2.1210938,1.28125l-.3984375.4619141h4.8496094l.2929688-.0205078Z"/>
        <path class="cls-1" d="m6.9697458,124.3027344c-.0410156.125-.1679688.2089844-.4199219.2089844-.3359375,1.7851562-.9238281,3.8007812-1.6367188,5.0390625-.2519531-.1679688-.7558594-.3984375-1.0703125-.5449219.6914062-1.1757812,1.2167969-3.1914062,1.5527344-5.1025391l1.5742188.3994141Zm2.3320312-11.8632812c-.1054688.1464844-.2734375.1894531-.4414062.1679688-.6503906,1.2177734-1.7011719,2.9179688-2.5820312,4.1152344.5664062.5458984,1.0917969,1.0917969,1.46875,1.5742188,1.0292969-1.4277344,2.015625-2.9179688,2.7089844-4.1357422l1.5117188.7138672c-.0625.1259766-.2304688.1679688-.4628906.1679688-1.1757812,1.8261719-3.0234375,4.3046875-4.6601562,6.1308594,1.34375-.0214844,2.7929688-.0419922,4.2617188-.0839844-.4199219-.6933594-.9023438-1.40625-1.3847656-1.9941406.5878906-.3154297.8183594-.4199219,1.0273438-.546875,1.0722656,1.3232422,2.2050781,3.0869141,2.6464844,4.2421875l-1.0917969.6289062c-.1464844-.3564453-.3359375-.7763672-.5878906-1.2382812l-2.4355469.1259766v8.9863281h-1.3222656v-8.9228516c-1.3027344.0410156-2.4785156.1044922-3.4023438.125-.0410156.1679688-.1679688.2519531-.3144531.2734375l-.3789062-1.5742188h1.5761719c.5039062-.5673828,1.0273438-1.1972656,1.5527344-1.890625-.671875-.9023438-1.8691406-2.078125-2.8964844-2.9179688l.6914062-.9023438c.2109375.1679688.4199219.3359375.6523438.5039062.8183594-1.21875,1.7832031-2.9609375,2.3300781-4.1992188l1.5332031.6503906Zm2.4980469,16.0195312c-.2304688-1.1328125-.9023438-2.8964844-1.5546875-4.2197266l1.1347656-.3994141c.671875,1.3232422,1.3652344,3.0449219,1.6367188,4.1787109l-1.2167969.4404297Zm10.5390625-12.7021484l.7558594.0839844c0,.1259766-.0195312.3154297-.0410156.4619141-.3359375,9.8476562-.671875,13.1435547-1.5117188,14.171875-.5664062.6933594-1.1347656.8193359-2.5820312.8193359-.7148438,0-1.5761719-.0205078-2.4160156-.0839844-.0410156-.3994141-.1875-.9658203-.4609375-1.34375,1.4492188.1259766,2.7714844.1474609,3.296875.1474609.4199219,0,.6914062-.0634766.9238281-.3359375.6914062-.7353516,1.0488281-3.9902344,1.3632812-12.5351562h-6.5917969c-.5664062,1.3017578-1.21875,2.4775391-1.890625,3.3808594-.2714844-.2109375-.796875-.5673828-1.1542969-.7558594,1.40625-1.8271484,2.625-4.9550781,3.359375-8l1.7636719.4619141c-.0410156.1884766-.2304688.2519531-.4609375.2314453-.2949219,1.1123047-.6523438,2.2246094-1.0722656,3.3164062h6.4042969l.3144531-.0205078Zm-6.8652344,4.6396484c1.21875,1.5332031,2.5195312,3.5703125,3.0234375,4.9345703l-1.2382812.671875c-.4824219-1.34375-1.7421875-3.4638672-2.9394531-5.0185547l1.1542969-.5878906Z"/>
      </g>
    </g>
  </g>
</svg>