<svg version="1.1" id="レイヤー_1" xmlns="http://www.w3.org/2000/svg" x="0" y="0" viewBox="0 0 30 30" style="enable-background:new 0 0 30 30" xml:space="preserve"><style>.st0{fill:#1c1700}</style><path class="st0" d="M25.3 30H11.8c-1 0-1.8-.8-1.8-1.8v-5.9c0-.1-.1-.3-.3-.3h-5c-1 0-1.8-.8-1.8-1.8V1.8C2.9.8 3.7 0 4.7 0h20.6c1 0 1.8.8 1.8 1.8v26.4c0 1-.8 1.8-1.8 1.8zM4.7 1.6c-.1 0-.3.1-.3.3v18.4c0 .1.1.3.3.3h5c1 0 1.8.8 1.8 1.8v5.9c0 .1.1.3.3.3h13.5c.1 0 .3-.1.3-.3V1.8c0-.1-.1-.3-.3-.3H4.7z"/><path class="st0" d="M13.2.8h1.6v4.1h-1.6zM3.7 10.3h5.4v1.6H3.7zM14.9 10.3h11.4v1.6H14.9z"/><path class="st0" d="M19.2 11.1h1.6v5h-1.6zM19.2 24.1h1.6v5.1h-1.6z"/></svg>