<svg version="1.1" id="レイヤー_1" xmlns="http://www.w3.org/2000/svg" x="0" y="0" viewBox="0 0 30 30" style="enable-background:new 0 0 30 30" xml:space="preserve"><style>.st0{fill:#1c1700}</style><path class="st0" d="M15.2 30c-.8 0-1.5-.7-1.6-1.5-.2-2-2.8-4.1-4.9-5.9-.8-.7-1.5-1.3-2.1-1.8C4.3 18.4 3 15.4 3 12.2 3 5.5 8.5 0 15.2 0c6.7 0 12.2 5.5 12.2 12.2 0 3.2-1.3 6.3-3.6 8.6-.6.6-1.3 1.2-2.1 1.8-2.1 1.7-4.7 3.9-4.9 5.9-.1.8-.8 1.5-1.6 1.5zm0-28.5C9.3 1.5 4.5 6.3 4.5 12.2c0 2.8 1.1 5.5 3.1 7.5.5.5 1.2 1.1 2 1.7 2.3 1.9 5.2 4.3 5.4 6.9 0 .1 0 .2.1.2s.1-.1.1-.2c.2-2.6 3.1-5 5.4-6.9.8-.6 1.5-1.2 2-1.7 2-2 3.1-4.7 3.1-7.5.1-5.9-4.7-10.7-10.5-10.7z"/><path class="st0" d="M15.2 16.9c-3.1 0-5.6-2.5-5.6-5.6s2.5-5.6 5.6-5.6c3.1 0 5.6 2.5 5.6 5.6s-2.6 5.6-5.6 5.6zm0-9.7c-2.2 0-4.1 1.8-4.1 4.1s1.8 4.1 4.1 4.1c2.2 0 4.1-1.8 4.1-4.1s-1.9-4.1-4.1-4.1z"/></svg>