<svg xmlns="http://www.w3.org/2000/svg" viewBox="0 0 30 30" style="enable-background:new 0 0 30 30" xml:space="preserve"><path d="M26.7 30H3.2C1.4 30 0 28.6 0 26.8V11.2c0-1.1.5-2 1.4-2.6L13 .6c1.1-.8 2.5-.8 3.6 0l11.9 8.1c.9.6 1.4 1.6 1.4 2.7v15.5c0 1.7-1.4 3.1-3.2 3.1zM14.8 1.6c-.3 0-.6.1-.9.3l-11.6 8c-.4.3-.7.8-.7 1.3v15.6c0 .9.7 1.6 1.6 1.6h23.5c.9 0 1.6-.7 1.6-1.6V11.3c0-.5-.3-1-.7-1.3L15.7 1.9c-.3-.2-.6-.3-.9-.3z"/><path d="M8.5 18.7c0-.1.1-.6.8-.6.9 0 1.3.5 1.6.8.5.5 1.4 1.5 1.7 1.8.1 0 .1.1.1.1s.1 0 .2-.1c.6-.9 1.7-2.6 2.9-4.2 1.5-2.2 3.2-4.4 3.7-4.9.4-.5.4-.7 1.2-.8h.4c.5 0 .5.2.5.5s-.3.4-.5.6c-1 1-2.8 3.4-4.2 5.6-1.1 1.6-2.1 3.4-2.4 5.1-.1.6-.3 1-.9 1-.5 0-1.1-.3-1.4-.5-.4-.3-.5-.4-.8-.8-.5-.7-1.1-1.3-2.6-2.8-.2-.5-.3-.7-.3-.8z"/></svg>