<svg xmlns="http://www.w3.org/2000/svg" viewBox="0 0 30 30" style="enable-background:new 0 0 30 30" xml:space="preserve"><path d="M23.5 21.3c-.8 0-1.6-.4-2.2-1.2-3.4-4.2-7.2-8.1-11.4-11.4-1.2-1-1.5-2.3-.8-3.7 1.1-2.3 3-3.9 5.4-4.9l.2-.1h1l.2.1c.1.1.3.2.4.2.4.2.8.4 1.1.8 3.4 4.2 7.1 7.9 11.1 11.1.6.5 1.2 1.1 1.5 2v1.1l-.1.1c-1.1 2.4-2.7 4.2-4.9 5.3-.5.5-1 .6-1.5.6zM15 1.5c-2.1.9-3.5 2.2-4.5 4.1-.5.9-.4 1.4.4 2 4.2 3.4 8.2 7.3 11.6 11.6.5.7 1.1.8 1.9.4 1.9-.9 3.2-2.4 4.2-4.4v-.5c-.2-.5-.6-.8-1-1.2-4-3.3-7.8-7.1-11.3-11.3-.3-.2-.5-.4-.8-.5-.1-.1-.2-.1-.3-.2H15zM4.2 30h-.7l-.2-.1C2 29.2 1 28 .2 26.9l-.2-.2v-1.1l.2-.2c.1-.1.2-.2.2-.3.2-.3.4-.5.7-.8 3.3-3.1 6.6-6.2 9.8-9.4l1.6-1.5.2-.2.6-.5 3.8 3.9-.9.9c-.3.3-.6.7-1 1l-1.8 1.9-8.1 8.7c-.2.3-.5.4-.8.6-.1.1-.2.1-.3.2v.1zm-2.7-3.8c.7.9 1.4 1.7 2.3 2.3 0 0 .1 0 .1-.1.2-.1.4-.2.5-.3l8.1-8.7 1.8-1.9.9-.9-1.8-1.9-1.5 1.3c-3.3 3.1-6.6 6.2-9.8 9.3-.2.2-.3.4-.5.6 0 .1-.1.1-.1.3z"/></svg>