<svg xmlns="http://www.w3.org/2000/svg" viewBox="0 0 30 30" style="enable-background:new 0 0 30 30" xml:space="preserve"><path d="M27 16.7c-3.8-1.6-7.4-.8-11.1.1-3.3.8-6.6 1.6-10.1.5V29c0 .5.1 1-.6 1-.2 0-.5-.6-.5-.9V1c0-.5-.1-1 .6-1 .1 0 .4.6.4 1 .1 1.5.1 1.5 1.5 1.7 2.7.5 5.3-.1 7.9-.7 2.2-.4 4.3-1 6.5-1.1 1.5-.1 3.1.4 4.7.7.3.1.7.6.7.9v14c.1-.1 0 0 0 .2zM5.8 3.6c0 .1-.1.2-.1.2v11.7c0 .2.4.6.6.7 1.3.2 2.7.5 4.1.4 1.8-.1 3.5-.6 5.3-1 2.9-.6 5.8-1.4 8.9-.9.4.1.9.1 1.4.2V3.5c0-.9-.3-1.3-1.2-1.4-2.3-.3-4.5-.1-6.8.4-4 .9-8 2.2-12.2 1.1z" style="fill:#1c1700"/></svg>